<svg width="391" height="314" xmlns="http://www.w3.org/2000/svg" xmlns:xlink="http://www.w3.org/1999/xlink" xml:space="preserve" overflow="hidden"><g transform="translate(-461 -102)"><g><g><g><g><g><path d="M55.6972 267.027 55.6972 14.782" stroke="#B0B0B0" stroke-width="0.540278" stroke-linecap="butt" stroke-linejoin="round" stroke-miterlimit="4" stroke-dasharray="1.99903 0.864444" stroke-opacity="1" fill="none" fill-rule="nonzero" transform="matrix(1 0 0 1.00257 462 103)"/></g><path d="M0 0 0 3.78194" stroke="#000000" stroke-width="0.864444" stroke-linecap="butt" stroke-linejoin="round" stroke-miterlimit="4" stroke-opacity="1" fill="none" fill-rule="nonzero" transform="matrix(1 0 0 1.00257 517.697 370.713)"/><path d="M1.65865 0.717219 4.63423 0.717219 4.63423 0 0.633476 0 0.633476 0.717219C0.956741 1.05219 1.39752 1.50153 1.95581 2.06521 2.51499 2.6298 2.86617 2.99404 3.00935 3.15792 3.28219 3.46409 3.47264 3.72342 3.58069 3.93592 3.68965 4.14843 3.74413 4.35734 3.74413 4.56265 3.74413 4.89762 3.62661 5.17046 3.39159 5.38117 3.15657 5.59278 2.85041 5.69858 2.47312 5.69858 2.20568 5.69858 1.92339 5.65221 1.62624 5.55946 1.32998 5.46671 1.01302 5.32579 0.675347 5.13669L0.675347 5.99843C1.01842 6.1362 1.33899 6.24021 1.63704 6.31044 1.93599 6.38068 2.20929 6.4158 2.45691 6.4158 3.10974 6.4158 3.63022 6.25236 4.01832 5.9255 4.40641 5.59953 4.60047 5.1637 4.60047 4.61802 4.60047 4.35869 4.55184 4.11286 4.45459 3.88055 4.35825 3.64913 4.18175 3.37583 3.92512 3.06067 3.85488 2.97873 3.63111 2.74281 3.25382 2.35291 2.87742 1.963 2.34571 1.41778 1.65865 0.717219Z" fill="#000000" fill-rule="nonzero" fill-opacity="1" transform="matrix(1 0 0 -1.00257 514.947 384.882)"/><g><path d="M111.362 267.027 111.362 14.782" stroke="#B0B0B0" stroke-width="0.540278" stroke-linecap="butt" stroke-linejoin="round" stroke-miterlimit="4" stroke-dasharray="1.99903 0.864444" stroke-opacity="1" fill="none" fill-rule="nonzero" transform="matrix(1 0 0 1.00257 462 103)"/></g><path d="M0 0 0 3.78194" stroke="#000000" stroke-width="0.864444" stroke-linecap="butt" stroke-linejoin="round" stroke-miterlimit="4" stroke-opacity="1" fill="none" fill-rule="nonzero" transform="matrix(1 0 0 1.00257 573.362 370.713)"/><path d="M3.50775 3.39835C3.91566 3.311 4.23398 3.12911 4.46269 2.85267 4.69231 2.57713 4.80712 2.23675 4.80712 1.83154 4.80712 1.21022 4.59327 0.728925 4.16554 0.387649 3.73782 0.0472743 3.13-0.122913 2.3421-0.122913 2.07827-0.122913 1.80632-0.0967998 1.52628-0.0445729 1.24624 0.00765394 0.957193 0.0859943 0.659139 0.190448L0.659139 1.01302C0.895061 0.87525 1.15349 0.771247 1.43444 0.70101 1.71629 0.630774 2.01074 0.595656 2.31779 0.595656 2.85176 0.595656 3.25878 0.70101 3.53882 0.911719 3.81886 1.12243 3.95889 1.42903 3.95889 1.83154 3.95889 2.20343 3.82877 2.49383 3.56853 2.70274 3.3083 2.91254 2.94631 3.01745 2.48258 3.01745L1.7478 3.01745 1.7478 3.71846 2.51634 3.71846C2.93506 3.71846 3.25562 3.8022 3.47804 3.96969 3.70046 4.13718 3.81166 4.37851 3.81166 4.69366 3.81166 5.01692 3.69685 5.26501 3.46723 5.4379 3.23852 5.61169 2.9103 5.69858 2.48258 5.69858 2.24846 5.69858 1.99768 5.67292 1.73024 5.62159 1.4628 5.57117 1.1688 5.49283 0.848236 5.38657L0.848236 6.14566C1.1724 6.23571 1.47586 6.30325 1.7586 6.34826 2.04134 6.39328 2.30789 6.4158 2.55822 6.4158 3.20564 6.4158 3.71756 6.26857 4.09396 5.97412 4.47124 5.68057 4.6599 5.28347 4.6599 4.78281 4.6599 4.43342 4.55994 4.13853 4.36004 3.8981 4.16014 3.65768 3.87605 3.4911 3.50775 3.39835Z" fill="#000000" fill-rule="nonzero" fill-opacity="1" transform="matrix(1 0 0 -1.00257 570.612 384.882)"/><g><path d="M150.857 267.027 150.857 14.782" stroke="#B0B0B0" stroke-width="0.540278" stroke-linecap="butt" stroke-linejoin="round" stroke-miterlimit="4" stroke-dasharray="1.99903 0.864444" stroke-opacity="1" fill="none" fill-rule="nonzero" transform="matrix(1 0 0 1.00257 462 103)"/></g><path d="M0 0 0 3.78194" stroke="#000000" stroke-width="0.864444" stroke-linecap="butt" stroke-linejoin="round" stroke-miterlimit="4" stroke-opacity="1" fill="none" fill-rule="nonzero" transform="matrix(1 0 0 1.00257 612.857 370.713)"/><path d="M3.26733 5.55946 1.11432 2.19488 3.26733 2.19488 3.26733 5.55946ZM3.04311 6.30234 4.11557 6.30234 4.11557 2.19488 5.01513 2.19488 5.01513 1.48576 4.11557 1.48576 4.11557 0 3.26733 0 3.26733 1.48576 0.422767 1.48576 0.422767 2.30834 3.04311 6.30234Z" fill="#000000" fill-rule="nonzero" fill-opacity="1" transform="matrix(1 0 0 -1.00257 610.107 384.882)"/><g><path d="M206.522 267.027 206.522 14.782" stroke="#B0B0B0" stroke-width="0.540278" stroke-linecap="butt" stroke-linejoin="round" stroke-miterlimit="4" stroke-dasharray="1.99903 0.864444" stroke-opacity="1" fill="none" fill-rule="nonzero" transform="matrix(1 0 0 1.00257 462 103)"/></g><path d="M0 0 0 3.78194" stroke="#000000" stroke-width="0.864444" stroke-linecap="butt" stroke-linejoin="round" stroke-miterlimit="4" stroke-opacity="1" fill="none" fill-rule="nonzero" transform="matrix(1 0 0 1.00257 668.522 370.713)"/><path d="M2.85402 3.49019C2.47133 3.49019 2.16786 3.35918 1.94365 3.09714 1.72034 2.83601 1.60868 2.47762 1.60868 2.02199 1.60868 1.56906 1.72034 1.21067 1.94365 0.946837 2.16786 0.683901 2.47133 0.552434 2.85402 0.552434 3.23671 0.552434 3.53972 0.683901 3.76303 0.946837 3.98635 1.21067 4.09801 1.56906 4.09801 2.02199 4.09801 2.47762 3.98635 2.83601 3.76303 3.09714 3.53972 3.35918 3.23671 3.49019 2.85402 3.49019ZM4.54644 6.16322 4.54644 5.38657C4.33212 5.48743 4.11601 5.56442 3.8981 5.61754 3.6802 5.67157 3.46409 5.69858 3.24977 5.69858 2.68698 5.69858 2.25701 5.50858 1.95986 5.12859 1.66361 4.7486 1.49431 4.17455 1.452 3.40645 1.61769 3.65137 1.82569 3.83912 2.07602 3.96969 2.32725 4.10026 2.60323 4.16554 2.90399 4.16554 3.53702 4.16554 4.03723 3.9733 4.40461 3.5888 4.772 3.2052 4.9557 2.68292 4.9557 2.02199 4.9557 1.37456 4.76435 0.85499 4.38165 0.463288 3.99896 0.0724873 3.48975-0.122913 2.85402-0.122913 2.12464-0.122913 1.56725 0.156231 1.18186 0.714517 0.79646 1.2737 0.60376 2.08368 0.60376 3.14442 0.60376 4.14032 0.840132 4.93453 1.31288 5.52704 1.78562 6.11955 2.42 6.4158 3.216 6.4158 3.43032 6.4158 3.64643 6.39463 3.86434 6.35232 4.08224 6.31 4.30962 6.24696 4.54644 6.16322Z" fill="#000000" fill-rule="nonzero" fill-opacity="1" transform="matrix(1 0 0 -1.00257 665.772 384.882)"/><g><path d="M276.651 267.027 276.651 14.782" stroke="#B0B0B0" stroke-width="0.540278" stroke-linecap="butt" stroke-linejoin="round" stroke-miterlimit="4" stroke-dasharray="1.99903 0.864444" stroke-opacity="1" fill="none" fill-rule="nonzero" transform="matrix(1 0 0 1.00257 462 103)"/></g><path d="M0 0 0 3.78194" stroke="#000000" stroke-width="0.864444" stroke-linecap="butt" stroke-linejoin="round" stroke-miterlimit="4" stroke-opacity="1" fill="none" fill-rule="nonzero" transform="matrix(1 0 0 1.00257 738.651 370.713)"/><path d="M1.07245 0.717219 2.46502 0.717219 2.46502 5.52569 0.949538 5.22178 0.949538 5.99843 2.45691 6.30234 3.3092 6.30234 3.3092 0.717219 4.70177 0.717219 4.70177 0 1.07245 0 1.07245 0.717219Z" fill="#000000" fill-rule="nonzero" fill-opacity="1" transform="matrix(1 0 0 -1.00257 733.151 384.882)"/><path d="M2.74731 5.74045C2.30878 5.74045 1.97877 5.52434 1.75725 5.09212 1.53664 4.6608 1.42633 4.01156 1.42633 3.14442 1.42633 2.28088 1.53664 1.63299 1.75725 1.20077 1.97877 0.768545 2.30878 0.552434 2.74731 0.552434 3.18944 0.552434 3.52081 0.768545 3.74142 1.20077 3.96294 1.63299 4.07369 2.28088 4.07369 3.14442 4.07369 4.01156 3.96294 4.6608 3.74142 5.09212 3.52081 5.52434 3.18944 5.74045 2.74731 5.74045ZM2.74731 6.4158C3.45417 6.4158 3.994 6.1362 4.3668 5.57702 4.73959 5.01873 4.92598 4.20786 4.92598 3.14442 4.92598 2.08368 4.73959 1.2737 4.3668 0.714517 3.994 0.156231 3.45417-0.122913 2.74731-0.122913 2.04134-0.122913 1.50197 0.156231 1.12918 0.714517 0.756389 1.2737 0.569993 2.08368 0.569993 3.14442 0.569993 4.20786 0.756389 5.01873 1.12918 5.57702 1.50197 6.1362 2.04134 6.4158 2.74731 6.4158Z" fill="#000000" fill-rule="nonzero" fill-opacity="1" transform="matrix(1 0 0 -1.00257 738.651 384.882)"/><g><path d="M371.811 267.027 371.811 14.782" stroke="#B0B0B0" stroke-width="0.540278" stroke-linecap="butt" stroke-linejoin="round" stroke-miterlimit="4" stroke-dasharray="1.99903 0.864444" stroke-opacity="1" fill="none" fill-rule="nonzero" transform="matrix(1 0 0 1.00257 462 103)"/></g><path d="M0 0 0 3.78194" stroke="#000000" stroke-width="0.864444" stroke-linecap="butt" stroke-linejoin="round" stroke-miterlimit="4" stroke-opacity="1" fill="none" fill-rule="nonzero" transform="matrix(1 0 0 1.00257 833.811 370.713)"/><path d="M1.65865 0.717219 4.63423 0.717219 4.63423 0 0.633476 0 0.633476 0.717219C0.956741 1.05219 1.39752 1.50153 1.95581 2.06521 2.51499 2.6298 2.86617 2.99404 3.00935 3.15792 3.28219 3.46409 3.47264 3.72342 3.58069 3.93592 3.68965 4.14843 3.74413 4.35734 3.74413 4.56265 3.74413 4.89762 3.62661 5.17046 3.39159 5.38117 3.15657 5.59278 2.85041 5.69858 2.47312 5.69858 2.20568 5.69858 1.92339 5.65221 1.62624 5.55946 1.32998 5.46671 1.01302 5.32579 0.675347 5.13669L0.675347 5.99843C1.01842 6.1362 1.33899 6.24021 1.63704 6.31044 1.93599 6.38068 2.20929 6.4158 2.45691 6.4158 3.10974 6.4158 3.63022 6.25236 4.01832 5.9255 4.40641 5.59953 4.60047 5.1637 4.60047 4.61802 4.60047 4.35869 4.55184 4.11286 4.45459 3.88055 4.35825 3.64913 4.18175 3.37583 3.92512 3.06067 3.85488 2.97873 3.63111 2.74281 3.25382 2.35291 2.87742 1.963 2.34571 1.41778 1.65865 0.717219Z" fill="#000000" fill-rule="nonzero" fill-opacity="1" transform="matrix(1 0 0 -1.00257 828.31 384.882)"/><path d="M2.74731 5.74045C2.30878 5.74045 1.97877 5.52434 1.75725 5.09212 1.53664 4.6608 1.42633 4.01156 1.42633 3.14442 1.42633 2.28088 1.53664 1.63299 1.75725 1.20077 1.97877 0.768545 2.30878 0.552434 2.74731 0.552434 3.18944 0.552434 3.52081 0.768545 3.74142 1.20077 3.96294 1.63299 4.07369 2.28088 4.07369 3.14442 4.07369 4.01156 3.96294 4.6608 3.74142 5.09212 3.52081 5.52434 3.18944 5.74045 2.74731 5.74045ZM2.74731 6.4158C3.45417 6.4158 3.994 6.1362 4.3668 5.57702 4.73959 5.01873 4.92598 4.20786 4.92598 3.14442 4.92598 2.08368 4.73959 1.2737 4.3668 0.714517 3.994 0.156231 3.45417-0.122913 2.74731-0.122913 2.04134-0.122913 1.50197 0.156231 1.12918 0.714517 0.756389 1.2737 0.569993 2.08368 0.569993 3.14442 0.569993 4.20786 0.756389 5.01873 1.12918 5.57702 1.50197 6.1362 2.04134 6.4158 2.74731 6.4158Z" fill="#000000" fill-rule="nonzero" fill-opacity="1" transform="matrix(1 0 0 -1.00257 833.81 384.882)"/><g><path d="M181.491 267.027 181.491 14.782" stroke="#B0B0B0" stroke-width="0.540278" stroke-linecap="butt" stroke-linejoin="round" stroke-miterlimit="4" stroke-dasharray="1.99903 0.864444" stroke-opacity="1" fill="none" fill-rule="nonzero" transform="matrix(1 0 0 1.00257 462 103)"/></g><path d="M0 0 0 2.16111" stroke="#000000" stroke-width="0.648333" stroke-linecap="butt" stroke-linejoin="round" stroke-miterlimit="4" stroke-opacity="1" fill="none" fill-rule="nonzero" transform="matrix(1 0 0 1.00257 643.491 370.713)"/><g><path d="M227.685 267.027 227.685 14.782" stroke="#B0B0B0" stroke-width="0.540278" stroke-linecap="butt" stroke-linejoin="round" stroke-miterlimit="4" stroke-dasharray="1.99903 0.864444" stroke-opacity="1" fill="none" fill-rule="nonzero" transform="matrix(1 0 0 1.00257 462 103)"/></g><path d="M0 0 0 2.16111" stroke="#000000" stroke-width="0.648333" stroke-linecap="butt" stroke-linejoin="round" stroke-miterlimit="4" stroke-opacity="1" fill="none" fill-rule="nonzero" transform="matrix(1 0 0 1.00257 689.685 370.713)"/><g><path d="M246.017 267.027 246.017 14.782" stroke="#B0B0B0" stroke-width="0.540278" stroke-linecap="butt" stroke-linejoin="round" stroke-miterlimit="4" stroke-dasharray="1.99903 0.864444" stroke-opacity="1" fill="none" fill-rule="nonzero" transform="matrix(1 0 0 1.00257 462 103)"/></g><path d="M0 0 0 2.16111" stroke="#000000" stroke-width="0.648333" stroke-linecap="butt" stroke-linejoin="round" stroke-miterlimit="4" stroke-opacity="1" fill="none" fill-rule="nonzero" transform="matrix(1 0 0 1.00257 708.017 370.713)"/><g><path d="M262.187 267.027 262.187 14.782" stroke="#B0B0B0" stroke-width="0.540278" stroke-linecap="butt" stroke-linejoin="round" stroke-miterlimit="4" stroke-dasharray="1.99903 0.864444" stroke-opacity="1" fill="none" fill-rule="nonzero" transform="matrix(1 0 0 1.00257 462 103)"/></g><path d="M0 0 0 2.16111" stroke="#000000" stroke-width="0.648333" stroke-linecap="butt" stroke-linejoin="round" stroke-miterlimit="4" stroke-opacity="1" fill="none" fill-rule="nonzero" transform="matrix(1 0 0 1.00257 724.187 370.713)"/><path d="M1.27235 9.45351 2.55079 9.45351 2.55079 0 1.27235 0 1.27235 9.45351Z" fill="#000000" fill-rule="nonzero" fill-opacity="1" transform="matrix(1 0 0 -1.00257 630.907 400.896)"/><path d="M7.11748 4.28103 7.11748 0 5.95251 0 5.95251 4.24253C5.95251 4.91382 5.82149 5.41561 5.55946 5.74788 5.29743 6.08151 4.90505 6.24831 4.38233 6.24831 3.7529 6.24831 3.25652 6.04773 2.89319 5.64658 2.52986 5.24678 2.34818 4.70042 2.34818 4.00751L2.34818 0 1.17713 0 1.17713 7.09115 2.34818 7.09115 2.34818 5.98898C2.62778 6.41581 2.95599 6.73456 3.33284 6.94527 3.71104 7.15598 4.14731 7.26133 4.64166 7.26133 5.45613 7.26133 6.07205 7.00944 6.48941 6.50562 6.90813 6.0018 7.11748 5.26027 7.11748 4.28103Z" fill="#000000" fill-rule="nonzero" fill-opacity="1" transform="matrix(1 0 0 -1.00257 634.731 400.896)"/><path d="M4.81185 9.85264 4.81185 8.88217 3.69753 8.88217C3.28016 8.88217 2.98977 8.79774 2.82633 8.62891 2.66424 8.46008 2.5832 8.15618 2.5832 7.71719L2.5832 7.09115 4.50186 7.09115 4.50186 6.18551 2.5832 6.18551 2.5832 0 1.41215 0 1.41215 6.18551 0.297828 6.18551 0.297828 7.09115 1.41215 7.09115 1.41215 7.5855C1.41215 8.3743 1.59585 8.94903 1.96323 9.30966 2.33062 9.67165 2.91278 9.85264 3.70968 9.85264L4.81185 9.85264Z" fill="#000000" fill-rule="nonzero" fill-opacity="1" transform="matrix(1 0 0 -1.00257 642.949 400.896)"/><path d="M7.28767 3.83732 7.28767 3.26801 1.93082 3.26801C1.98214 2.46569 2.22393 1.8545 2.65614 1.43444 3.08836 1.01437 3.69078 0.804339 4.46337 0.804339 4.91046 0.804339 5.34403 0.859042 5.76409 0.968448 6.18415 1.07785 6.60151 1.24264 7.01618 1.4628L7.01618 0.360635C6.59746 0.183695 6.16863 0.048625 5.72965-0.0445729 5.29066-0.137771 4.84562-0.18437 4.39448-0.18437 3.2626-0.18437 2.36642 0.144524 1.70593 0.802313 1.04544 1.46145 0.715193 2.3529 0.715193 3.47669 0.715193 4.63694 1.02855 5.55743 1.65528 6.23818 2.28199 6.92029 3.12754 7.26133 4.19188 7.26133 5.14548 7.26133 5.89983 6.95404 6.45497 6.33948 7.0101 5.72626 7.28767 4.89222 7.28767 3.83732ZM6.1227 4.17972C6.11459 4.8159 5.9363 5.32377 5.58782 5.70331 5.23934 6.0842 4.77808 6.27465 4.20404 6.27465 3.55435 6.27465 3.03434 6.09095 2.64398 5.72357 2.25363 5.35619 2.02874 4.83886 1.96931 4.17162L6.1227 4.17972Z" fill="#000000" fill-rule="nonzero" fill-opacity="1" transform="matrix(1 0 0 -1.00257 647.514 400.896)"/><path d="M5.33052 6.00316C5.19949 6.07879 5.057 6.13419 4.90302 6.1693 4.74904 6.20577 4.57952 6.224 4.39448 6.224 3.73535 6.224 3.22951 6.00991 2.87698 5.58175 2.52445 5.15358 2.34818 4.53833 2.34818 3.73602L2.34818 0 1.17713 0 1.17713 7.09115 2.34818 7.09115 2.34818 5.98898C2.594 6.41986 2.91278 6.73928 3.30447 6.9473 3.69753 7.15665 4.175 7.26133 4.73689 7.26133 4.81657 7.26133 4.90505 7.25592 5.0023 7.24513 5.09955 7.23566 5.20693 7.22014 5.32444 7.19853L5.33052 6.00316Z" fill="#000000" fill-rule="nonzero" fill-opacity="1" transform="matrix(1 0 0 -1.00257 655.492 400.896)"/><path d="M1.38581 1.60868 2.723 1.60868 2.723 0 1.38581 0 1.38581 1.60868Z" fill="#000000" fill-rule="nonzero" fill-opacity="1" transform="matrix(1 0 0 -1.00257 659.64 400.896)"/><path d="M-0.0384948 9.45351 7.95829 9.45351 7.95829 8.37566 4.60317 8.37566 4.60317 0 3.31866 0 3.31866 8.37566-0.0384948 8.37566-0.0384948 9.45351Z" fill="#000000" fill-rule="nonzero" fill-opacity="1" transform="matrix(1 0 0 -1.00257 667.883 400.896)"/><path d="M1.2217 7.09115 2.38668 7.09115 2.38668 0 1.2217 0 1.2217 7.09115ZM1.2217 9.85264 2.38668 9.85264 2.38668 8.37566 1.2217 8.37566 1.2217 9.85264Z" fill="#000000" fill-rule="nonzero" fill-opacity="1" transform="matrix(1 0 0 -1.00257 675.398 400.896)"/><path d="M6.74267 5.72965C7.03442 6.25372 7.3829 6.64001 7.7881 6.88854 8.19331 7.13708 8.6701 7.26133 9.21849 7.26133 9.95733 7.26133 10.5273 7.00267 10.9285 6.48536 11.3296 5.96939 11.5302 5.23462 11.5302 4.28103L11.5302 0 10.3592 0 10.3592 4.24253C10.3592 4.92192 10.2383 5.42574 9.99649 5.75396 9.75606 6.08353 9.38935 6.24831 8.89635 6.24831 8.29259 6.24831 7.81511 6.04773 7.46394 5.64658 7.1141 5.24678 6.93919 4.70042 6.93919 4.00751L6.93919 0 5.76814 0 5.76814 4.24253C5.76814 4.92598 5.64794 5.43115 5.40751 5.75801 5.16708 6.08487 4.79564 6.24831 4.29318 6.24831 3.69753 6.24831 3.2241 6.04707 2.87293 5.64455 2.52309 5.24204 2.34818 4.69636 2.34818 4.00751L2.34818 0 1.17713 0 1.17713 7.09115 2.34818 7.09115 2.34818 5.98898C2.61426 6.42391 2.93304 6.74469 3.30447 6.95135 3.67591 7.15801 4.11692 7.26133 4.62748 7.26133 5.14345 7.26133 5.58175 7.13031 5.94238 6.86828 6.30302 6.60759 6.56978 6.22805 6.74267 5.72965Z" fill="#000000" fill-rule="nonzero" fill-opacity="1" transform="matrix(1 0 0 -1.00257 679.001 400.896)"/><path d="M7.28767 3.83732 7.28767 3.26801 1.93082 3.26801C1.98214 2.46569 2.22393 1.8545 2.65614 1.43444 3.08836 1.01437 3.69078 0.804339 4.46337 0.804339 4.91046 0.804339 5.34403 0.859042 5.76409 0.968448 6.18415 1.07785 6.60151 1.24264 7.01618 1.4628L7.01618 0.360635C6.59746 0.183695 6.16863 0.048625 5.72965-0.0445729 5.29066-0.137771 4.84562-0.18437 4.39448-0.18437 3.2626-0.18437 2.36642 0.144524 1.70593 0.802313 1.04544 1.46145 0.715193 2.3529 0.715193 3.47669 0.715193 4.63694 1.02855 5.55743 1.65528 6.23818 2.28199 6.92029 3.12754 7.26133 4.19188 7.26133 5.14548 7.26133 5.89983 6.95404 6.45497 6.33948 7.0101 5.72626 7.28767 4.89222 7.28767 3.83732ZM6.1227 4.17972C6.11459 4.8159 5.9363 5.32377 5.58782 5.70331 5.23934 6.0842 4.77808 6.27465 4.20404 6.27465 3.55435 6.27465 3.03434 6.09095 2.64398 5.72357 2.25363 5.35619 2.02874 4.83886 1.96931 4.17162L6.1227 4.17972Z" fill="#000000" fill-rule="nonzero" fill-opacity="1" transform="matrix(1 0 0 -1.00257 691.632 400.896)"/><path d="M1.11432 9.85264 3.79883 9.85264 3.79883 8.947 2.2793 8.947 2.2793-0.804339 3.79883-0.804339 3.79883-1.70998 1.11432-1.70998 1.11432 9.85264Z" fill="#000000" fill-rule="nonzero" fill-opacity="1" transform="matrix(1 0 0 -1.00257 703.731 400.896)"/><path d="M5.7418 6.88246 5.7418 5.7803C5.41358 5.94913 5.07185 6.07543 4.71663 6.15917 4.36274 6.24426 3.99535 6.28681 3.61446 6.28681 3.03637 6.28681 2.6028 6.19833 2.31374 6.0214 2.02469 5.84446 1.88017 5.57836 1.88017 5.22314 1.88017 4.953 1.98349 4.74094 2.19015 4.58696 2.39681 4.43298 2.81281 4.28644 3.43819 4.14731L3.83732 4.05816C4.66395 3.88123 5.2515 3.63134 5.59998 3.30853 5.94846 2.98572 6.1227 2.53525 6.1227 1.95716 6.1227 1.29802 5.86201 0.775974 5.34065 0.391026 4.81928 0.00742883 4.10273-0.18437 3.19102-0.18437 2.81148-0.18437 2.41571-0.147226 2.00376-0.0729375 1.59179 0.0013507 1.15822 0.112108 0.703036 0.259333L0.703036 1.4628C1.13391 1.23859 1.55803 1.07042 1.97539 0.958318 2.39276 0.84756 2.80674 0.792182 3.21735 0.792182 3.76574 0.792182 4.18716 0.886055 4.4816 1.0738 4.77741 1.26155 4.92531 1.52628 4.92531 1.86801 4.92531 2.18407 4.8186 2.42653 4.60519 2.59536 4.39313 2.76419 3.9258 2.92696 3.20317 3.08364L2.79796 3.17886C2.07669 3.33014 1.55533 3.56314 1.23386 3.87784 0.913745 4.19255 0.753688 4.6241 0.753688 5.17248 0.753688 5.83972 0.99006 6.35434 1.4628 6.71633 1.93554 7.07966 2.60685 7.26133 3.47669 7.26133 3.90621 7.26133 4.31075 7.22959 4.69029 7.16611 5.07118 7.10397 5.42169 7.00944 5.7418 6.88246Z" fill="#000000" fill-rule="nonzero" fill-opacity="1" transform="matrix(1 0 0 -1.00257 708.79 400.896)"/><path d="M3.9447 9.85264 3.9447-1.70998 1.2602-1.70998 1.2602-0.804339 2.77365-0.804339 2.77365 8.947 1.2602 8.947 1.2602 9.85264 3.9447 9.85264Z" fill="#000000" fill-rule="nonzero" fill-opacity="1" transform="matrix(1 0 0 -1.00257 715.546 400.896)"/><g><path d="M55.6972 267.027 371.811 267.027" stroke="#B0B0B0" stroke-width="0.540278" stroke-linecap="butt" stroke-linejoin="round" stroke-miterlimit="4" stroke-dasharray="1.99903 0.864444" stroke-opacity="1" fill="none" fill-rule="nonzero" transform="matrix(1 0 0 1.00257 462 103)"/></g><path d="M0 0-3.78194 0" stroke="#000000" stroke-width="0.864444" stroke-linecap="butt" stroke-linejoin="round" stroke-miterlimit="4" stroke-opacity="1" fill="none" fill-rule="nonzero" transform="matrix(1 0 0 1.00257 517.697 370.713)"/><path d="M2.74731 5.74045C2.30878 5.74045 1.97877 5.52434 1.75725 5.09212 1.53664 4.6608 1.42633 4.01156 1.42633 3.14442 1.42633 2.28088 1.53664 1.63299 1.75725 1.20077 1.97877 0.768545 2.30878 0.552434 2.74731 0.552434 3.18944 0.552434 3.52081 0.768545 3.74142 1.20077 3.96294 1.63299 4.07369 2.28088 4.07369 3.14442 4.07369 4.01156 3.96294 4.6608 3.74142 5.09212 3.52081 5.52434 3.18944 5.74045 2.74731 5.74045ZM2.74731 6.4158C3.45417 6.4158 3.994 6.1362 4.3668 5.57702 4.73959 5.01873 4.92598 4.20786 4.92598 3.14442 4.92598 2.08368 4.73959 1.2737 4.3668 0.714517 3.994 0.156231 3.45417-0.122913 2.74731-0.122913 2.04134-0.122913 1.50197 0.156231 1.12918 0.714517 0.756389 1.2737 0.569993 2.08368 0.569993 3.14442 0.569993 4.20786 0.756389 5.01873 1.12918 5.57702 1.50197 6.1362 2.04134 6.4158 2.74731 6.4158Z" fill="#000000" fill-rule="nonzero" fill-opacity="1" transform="matrix(1 0 0 -1.00257 490.886 374.006)"/><path d="M0.923875 1.07245 1.81533 1.07245 1.81533 0 0.923875 0 0.923875 1.07245Z" fill="#000000" fill-rule="nonzero" fill-opacity="1" transform="matrix(1 0 0 -1.00257 496.386 374.006)"/><path d="M1.65865 0.717219 4.63423 0.717219 4.63423 0 0.633476 0 0.633476 0.717219C0.956741 1.05219 1.39752 1.50153 1.95581 2.06521 2.51499 2.6298 2.86617 2.99404 3.00935 3.15792 3.28219 3.46409 3.47264 3.72342 3.58069 3.93592 3.68965 4.14843 3.74413 4.35734 3.74413 4.56265 3.74413 4.89762 3.62661 5.17046 3.39159 5.38117 3.15657 5.59278 2.85041 5.69858 2.47312 5.69858 2.20568 5.69858 1.92339 5.65221 1.62624 5.55946 1.32998 5.46671 1.01302 5.32579 0.675347 5.13669L0.675347 5.99843C1.01842 6.1362 1.33899 6.24021 1.63704 6.31044 1.93599 6.38068 2.20929 6.4158 2.45691 6.4158 3.10974 6.4158 3.63022 6.25236 4.01832 5.9255 4.40641 5.59953 4.60047 5.1637 4.60047 4.61802 4.60047 4.35869 4.55184 4.11286 4.45459 3.88055 4.35825 3.64913 4.18175 3.37583 3.92512 3.06067 3.85488 2.97873 3.63111 2.74281 3.25382 2.35291 2.87742 1.963 2.34571 1.41778 1.65865 0.717219Z" fill="#000000" fill-rule="nonzero" fill-opacity="1" transform="matrix(1 0 0 -1.00257 499.134 374.006)"/><path d="M0.93333 6.30234 4.28035 6.30234 4.28035 5.58377 1.71403 5.58377 1.71403 4.03993C1.83739 4.08224 1.96076 4.11377 2.08412 4.13448 2.20839 4.15518 2.33265 4.16554 2.45691 4.16554 3.16018 4.16554 3.71711 3.97284 4.12772 3.58744 4.53924 3.20205 4.74499 2.68022 4.74499 2.02199 4.74499 1.34394 4.53384 0.81672 4.11151 0.440326 3.68919 0.0648333 3.094-0.122913 2.3259-0.122913 2.06116-0.122913 1.79147-0.100402 1.51683-0.0553785 1.24309-0.0103553 0.959894 0.0571794 0.667243 0.147226L0.667243 1.00492C0.920273 0.867146 1.18186 0.764493 1.452 0.696958 1.72214 0.629424 2.00758 0.595656 2.30834 0.595656 2.79549 0.595656 3.18089 0.723522 3.46453 0.979253 3.74908 1.23498 3.89135 1.58257 3.89135 2.02199 3.89135 2.46052 3.74908 2.80765 3.46453 3.06337 3.18089 3.32001 2.79549 3.44832 2.30834 3.44832 2.08052 3.44832 1.85315 3.42311 1.62624 3.37268 1.40022 3.32226 1.16925 3.24346 0.93333 3.13631L0.93333 6.30234Z" fill="#000000" fill-rule="nonzero" fill-opacity="1" transform="matrix(1 0 0 -1.00257 504.633 374.006)"/><g><path d="M55.6972 216.578 371.811 216.578" stroke="#B0B0B0" stroke-width="0.540278" stroke-linecap="butt" stroke-linejoin="round" stroke-miterlimit="4" stroke-dasharray="1.99903 0.864444" stroke-opacity="1" fill="none" fill-rule="nonzero" transform="matrix(1 0 0 1.00257 462 103)"/></g><path d="M0 0-3.78194 0" stroke="#000000" stroke-width="0.864444" stroke-linecap="butt" stroke-linejoin="round" stroke-miterlimit="4" stroke-opacity="1" fill="none" fill-rule="nonzero" transform="matrix(1 0 0 1.00257 517.697 320.135)"/><path d="M2.74731 5.74045C2.30878 5.74045 1.97877 5.52434 1.75725 5.09212 1.53664 4.6608 1.42633 4.01156 1.42633 3.14442 1.42633 2.28088 1.53664 1.63299 1.75725 1.20077 1.97877 0.768545 2.30878 0.552434 2.74731 0.552434 3.18944 0.552434 3.52081 0.768545 3.74142 1.20077 3.96294 1.63299 4.07369 2.28088 4.07369 3.14442 4.07369 4.01156 3.96294 4.6608 3.74142 5.09212 3.52081 5.52434 3.18944 5.74045 2.74731 5.74045ZM2.74731 6.4158C3.45417 6.4158 3.994 6.1362 4.3668 5.57702 4.73959 5.01873 4.92598 4.20786 4.92598 3.14442 4.92598 2.08368 4.73959 1.2737 4.3668 0.714517 3.994 0.156231 3.45417-0.122913 2.74731-0.122913 2.04134-0.122913 1.50197 0.156231 1.12918 0.714517 0.756389 1.2737 0.569993 2.08368 0.569993 3.14442 0.569993 4.20786 0.756389 5.01873 1.12918 5.57702 1.50197 6.1362 2.04134 6.4158 2.74731 6.4158Z" fill="#000000" fill-rule="nonzero" fill-opacity="1" transform="matrix(1 0 0 -1.00257 490.886 323.427)"/><path d="M0.923875 1.07245 1.81533 1.07245 1.81533 0 0.923875 0 0.923875 1.07245Z" fill="#000000" fill-rule="nonzero" fill-opacity="1" transform="matrix(1 0 0 -1.00257 496.386 323.427)"/><path d="M1.65865 0.717219 4.63423 0.717219 4.63423 0 0.633476 0 0.633476 0.717219C0.956741 1.05219 1.39752 1.50153 1.95581 2.06521 2.51499 2.6298 2.86617 2.99404 3.00935 3.15792 3.28219 3.46409 3.47264 3.72342 3.58069 3.93592 3.68965 4.14843 3.74413 4.35734 3.74413 4.56265 3.74413 4.89762 3.62661 5.17046 3.39159 5.38117 3.15657 5.59278 2.85041 5.69858 2.47312 5.69858 2.20568 5.69858 1.92339 5.65221 1.62624 5.55946 1.32998 5.46671 1.01302 5.32579 0.675347 5.13669L0.675347 5.99843C1.01842 6.1362 1.33899 6.24021 1.63704 6.31044 1.93599 6.38068 2.20929 6.4158 2.45691 6.4158 3.10974 6.4158 3.63022 6.25236 4.01832 5.9255 4.40641 5.59953 4.60047 5.1637 4.60047 4.61802 4.60047 4.35869 4.55184 4.11286 4.45459 3.88055 4.35825 3.64913 4.18175 3.37583 3.92512 3.06067 3.85488 2.97873 3.63111 2.74281 3.25382 2.35291 2.87742 1.963 2.34571 1.41778 1.65865 0.717219Z" fill="#000000" fill-rule="nonzero" fill-opacity="1" transform="matrix(1 0 0 -1.00257 499.134 323.427)"/><path d="M2.85402 3.49019C2.47133 3.49019 2.16786 3.35918 1.94365 3.09714 1.72034 2.83601 1.60868 2.47762 1.60868 2.02199 1.60868 1.56906 1.72034 1.21067 1.94365 0.946837 2.16786 0.683901 2.47133 0.552434 2.85402 0.552434 3.23671 0.552434 3.53972 0.683901 3.76303 0.946837 3.98635 1.21067 4.09801 1.56906 4.09801 2.02199 4.09801 2.47762 3.98635 2.83601 3.76303 3.09714 3.53972 3.35918 3.23671 3.49019 2.85402 3.49019ZM4.54644 6.16322 4.54644 5.38657C4.33212 5.48743 4.11601 5.56442 3.8981 5.61754 3.6802 5.67157 3.46409 5.69858 3.24977 5.69858 2.68698 5.69858 2.25701 5.50858 1.95986 5.12859 1.66361 4.7486 1.49431 4.17455 1.452 3.40645 1.61769 3.65137 1.82569 3.83912 2.07602 3.96969 2.32725 4.10026 2.60323 4.16554 2.90399 4.16554 3.53702 4.16554 4.03723 3.9733 4.40461 3.5888 4.772 3.2052 4.9557 2.68292 4.9557 2.02199 4.9557 1.37456 4.76435 0.85499 4.38165 0.463288 3.99896 0.0724873 3.48975-0.122913 2.85402-0.122913 2.12464-0.122913 1.56725 0.156231 1.18186 0.714517 0.79646 1.2737 0.60376 2.08368 0.60376 3.14442 0.60376 4.14032 0.840132 4.93453 1.31288 5.52704 1.78562 6.11955 2.42 6.4158 3.216 6.4158 3.43032 6.4158 3.64643 6.39463 3.86434 6.35232 4.08224 6.31 4.30962 6.24696 4.54644 6.16322Z" fill="#000000" fill-rule="nonzero" fill-opacity="1" transform="matrix(1 0 0 -1.00257 504.633 323.427)"/><g><path d="M55.6972 166.129 371.811 166.129" stroke="#B0B0B0" stroke-width="0.540278" stroke-linecap="butt" stroke-linejoin="round" stroke-miterlimit="4" stroke-dasharray="1.99903 0.864444" stroke-opacity="1" fill="none" fill-rule="nonzero" transform="matrix(1 0 0 1.00257 462 103)"/></g><path d="M0 0-3.78194 0" stroke="#000000" stroke-width="0.864444" stroke-linecap="butt" stroke-linejoin="round" stroke-miterlimit="4" stroke-opacity="1" fill="none" fill-rule="nonzero" transform="matrix(1 0 0 1.00257 517.697 269.556)"/><path d="M2.74731 5.74045C2.30878 5.74045 1.97877 5.52434 1.75725 5.09212 1.53664 4.6608 1.42633 4.01156 1.42633 3.14442 1.42633 2.28088 1.53664 1.63299 1.75725 1.20077 1.97877 0.768545 2.30878 0.552434 2.74731 0.552434 3.18944 0.552434 3.52081 0.768545 3.74142 1.20077 3.96294 1.63299 4.07369 2.28088 4.07369 3.14442 4.07369 4.01156 3.96294 4.6608 3.74142 5.09212 3.52081 5.52434 3.18944 5.74045 2.74731 5.74045ZM2.74731 6.4158C3.45417 6.4158 3.994 6.1362 4.3668 5.57702 4.73959 5.01873 4.92598 4.20786 4.92598 3.14442 4.92598 2.08368 4.73959 1.2737 4.3668 0.714517 3.994 0.156231 3.45417-0.122913 2.74731-0.122913 2.04134-0.122913 1.50197 0.156231 1.12918 0.714517 0.756389 1.2737 0.569993 2.08368 0.569993 3.14442 0.569993 4.20786 0.756389 5.01873 1.12918 5.57702 1.50197 6.1362 2.04134 6.4158 2.74731 6.4158Z" fill="#000000" fill-rule="nonzero" fill-opacity="1" transform="matrix(1 0 0 -1.00257 490.886 272.848)"/><path d="M0.923875 1.07245 1.81533 1.07245 1.81533 0 0.923875 0 0.923875 1.07245Z" fill="#000000" fill-rule="nonzero" fill-opacity="1" transform="matrix(1 0 0 -1.00257 496.386 272.848)"/><path d="M1.65865 0.717219 4.63423 0.717219 4.63423 0 0.633476 0 0.633476 0.717219C0.956741 1.05219 1.39752 1.50153 1.95581 2.06521 2.51499 2.6298 2.86617 2.99404 3.00935 3.15792 3.28219 3.46409 3.47264 3.72342 3.58069 3.93592 3.68965 4.14843 3.74413 4.35734 3.74413 4.56265 3.74413 4.89762 3.62661 5.17046 3.39159 5.38117 3.15657 5.59278 2.85041 5.69858 2.47312 5.69858 2.20568 5.69858 1.92339 5.65221 1.62624 5.55946 1.32998 5.46671 1.01302 5.32579 0.675347 5.13669L0.675347 5.99843C1.01842 6.1362 1.33899 6.24021 1.63704 6.31044 1.93599 6.38068 2.20929 6.4158 2.45691 6.4158 3.10974 6.4158 3.63022 6.25236 4.01832 5.9255 4.40641 5.59953 4.60047 5.1637 4.60047 4.61802 4.60047 4.35869 4.55184 4.11286 4.45459 3.88055 4.35825 3.64913 4.18175 3.37583 3.92512 3.06067 3.85488 2.97873 3.63111 2.74281 3.25382 2.35291 2.87742 1.963 2.34571 1.41778 1.65865 0.717219Z" fill="#000000" fill-rule="nonzero" fill-opacity="1" transform="matrix(1 0 0 -1.00257 499.134 272.848)"/><path d="M0.709115 6.30234 4.7612 6.30234 4.7612 5.939 2.47312 0 1.58301 0 3.73602 5.58377 0.709115 5.58377 0.709115 6.30234Z" fill="#000000" fill-rule="nonzero" fill-opacity="1" transform="matrix(1 0 0 -1.00257 504.633 272.848)"/><g><path d="M55.6972 115.68 371.811 115.68" stroke="#B0B0B0" stroke-width="0.540278" stroke-linecap="butt" stroke-linejoin="round" stroke-miterlimit="4" stroke-dasharray="1.99903 0.864444" stroke-opacity="1" fill="none" fill-rule="nonzero" transform="matrix(1 0 0 1.00257 462 103)"/></g><path d="M0 0-3.78194 0" stroke="#000000" stroke-width="0.864444" stroke-linecap="butt" stroke-linejoin="round" stroke-miterlimit="4" stroke-opacity="1" fill="none" fill-rule="nonzero" transform="matrix(1 0 0 1.00257 517.697 218.977)"/><path d="M2.74731 5.74045C2.30878 5.74045 1.97877 5.52434 1.75725 5.09212 1.53664 4.6608 1.42633 4.01156 1.42633 3.14442 1.42633 2.28088 1.53664 1.63299 1.75725 1.20077 1.97877 0.768545 2.30878 0.552434 2.74731 0.552434 3.18944 0.552434 3.52081 0.768545 3.74142 1.20077 3.96294 1.63299 4.07369 2.28088 4.07369 3.14442 4.07369 4.01156 3.96294 4.6608 3.74142 5.09212 3.52081 5.52434 3.18944 5.74045 2.74731 5.74045ZM2.74731 6.4158C3.45417 6.4158 3.994 6.1362 4.3668 5.57702 4.73959 5.01873 4.92598 4.20786 4.92598 3.14442 4.92598 2.08368 4.73959 1.2737 4.3668 0.714517 3.994 0.156231 3.45417-0.122913 2.74731-0.122913 2.04134-0.122913 1.50197 0.156231 1.12918 0.714517 0.756389 1.2737 0.569993 2.08368 0.569993 3.14442 0.569993 4.20786 0.756389 5.01873 1.12918 5.57702 1.50197 6.1362 2.04134 6.4158 2.74731 6.4158Z" fill="#000000" fill-rule="nonzero" fill-opacity="1" transform="matrix(1 0 0 -1.00257 490.886 222.27)"/><path d="M0.923875 1.07245 1.81533 1.07245 1.81533 0 0.923875 0 0.923875 1.07245Z" fill="#000000" fill-rule="nonzero" fill-opacity="1" transform="matrix(1 0 0 -1.00257 496.386 222.27)"/><path d="M1.65865 0.717219 4.63423 0.717219 4.63423 0 0.633476 0 0.633476 0.717219C0.956741 1.05219 1.39752 1.50153 1.95581 2.06521 2.51499 2.6298 2.86617 2.99404 3.00935 3.15792 3.28219 3.46409 3.47264 3.72342 3.58069 3.93592 3.68965 4.14843 3.74413 4.35734 3.74413 4.56265 3.74413 4.89762 3.62661 5.17046 3.39159 5.38117 3.15657 5.59278 2.85041 5.69858 2.47312 5.69858 2.20568 5.69858 1.92339 5.65221 1.62624 5.55946 1.32998 5.46671 1.01302 5.32579 0.675347 5.13669L0.675347 5.99843C1.01842 6.1362 1.33899 6.24021 1.63704 6.31044 1.93599 6.38068 2.20929 6.4158 2.45691 6.4158 3.10974 6.4158 3.63022 6.25236 4.01832 5.9255 4.40641 5.59953 4.60047 5.1637 4.60047 4.61802 4.60047 4.35869 4.55184 4.11286 4.45459 3.88055 4.35825 3.64913 4.18175 3.37583 3.92512 3.06067 3.85488 2.97873 3.63111 2.74281 3.25382 2.35291 2.87742 1.963 2.34571 1.41778 1.65865 0.717219Z" fill="#000000" fill-rule="nonzero" fill-opacity="1" transform="matrix(1 0 0 -1.00257 499.134 222.27)"/><path d="M2.74731 2.99314C2.3421 2.99314 2.02334 2.88464 1.79102 2.66762 1.55961 2.45061 1.44389 2.15256 1.44389 1.77346 1.44389 1.39347 1.55961 1.09496 1.79102 0.877951 2.02334 0.660939 2.3421 0.552434 2.74731 0.552434 3.15252 0.552434 3.47173 0.66139 3.70495 0.879302 3.93907 1.09811 4.05614 1.39617 4.05614 1.77346 4.05614 2.15256 3.93998 2.45061 3.70766 2.66762 3.47624 2.88464 3.15613 2.99314 2.74731 2.99314ZM1.89502 3.35512C1.52943 3.44518 1.24444 3.61536 1.04003 3.86569 0.83653 4.11692 0.734778 4.42262 0.734778 4.78281 0.734778 5.28617 0.91397 5.68417 1.27235 5.97682 1.63164 6.26948 2.12329 6.4158 2.74731 6.4158 3.37494 6.4158 3.86748 6.26948 4.22497 5.97682 4.58246 5.68417 4.7612 5.28617 4.7612 4.78281 4.7612 4.42262 4.65899 4.11692 4.45459 3.86569 4.25108 3.61536 3.96789 3.44518 3.605 3.35512 4.01561 3.25967 4.33528 3.07238 4.564 2.79324 4.79361 2.51499 4.90842 2.17506 4.90842 1.77346 4.90842 1.16205 4.72203 0.692906 4.34924 0.366038 3.97644 0.0400706 3.44247-0.122913 2.74731-0.122913 2.05306-0.122913 1.51909 0.0400706 1.14539 0.366038 0.772597 0.692906 0.586201 1.16205 0.586201 1.77346 0.586201 2.17506 0.70146 2.51499 0.931979 2.79324 1.1634 3.07238 1.48441 3.25967 1.89502 3.35512ZM1.58301 4.70177C1.58301 4.3758 1.68476 4.12141 1.88827 3.93863 2.09267 3.75584 2.37902 3.66443 2.74731 3.66443 3.1138 3.66443 3.40014 3.75584 3.60635 3.93863 3.81346 4.12141 3.91701 4.3758 3.91701 4.70177 3.91701 5.02864 3.81346 5.28347 3.60635 5.46626 3.40014 5.64905 3.1138 5.74045 2.74731 5.74045 2.37902 5.74045 2.09267 5.64905 1.88827 5.46626 1.68476 5.28347 1.58301 5.02864 1.58301 4.70177Z" fill="#000000" fill-rule="nonzero" fill-opacity="1" transform="matrix(1 0 0 -1.00257 504.633 222.27)"/><g><path d="M55.6972 65.231 371.811 65.231" stroke="#B0B0B0" stroke-width="0.540278" stroke-linecap="butt" stroke-linejoin="round" stroke-miterlimit="4" stroke-dasharray="1.99903 0.864444" stroke-opacity="1" fill="none" fill-rule="nonzero" transform="matrix(1 0 0 1.00257 462 103)"/></g><path d="M0 0-3.78194 0" stroke="#000000" stroke-width="0.864444" stroke-linecap="butt" stroke-linejoin="round" stroke-miterlimit="4" stroke-opacity="1" fill="none" fill-rule="nonzero" transform="matrix(1 0 0 1.00257 517.697 168.399)"/><path d="M2.74731 5.74045C2.30878 5.74045 1.97877 5.52434 1.75725 5.09212 1.53664 4.6608 1.42633 4.01156 1.42633 3.14442 1.42633 2.28088 1.53664 1.63299 1.75725 1.20077 1.97877 0.768545 2.30878 0.552434 2.74731 0.552434 3.18944 0.552434 3.52081 0.768545 3.74142 1.20077 3.96294 1.63299 4.07369 2.28088 4.07369 3.14442 4.07369 4.01156 3.96294 4.6608 3.74142 5.09212 3.52081 5.52434 3.18944 5.74045 2.74731 5.74045ZM2.74731 6.4158C3.45417 6.4158 3.994 6.1362 4.3668 5.57702 4.73959 5.01873 4.92598 4.20786 4.92598 3.14442 4.92598 2.08368 4.73959 1.2737 4.3668 0.714517 3.994 0.156231 3.45417-0.122913 2.74731-0.122913 2.04134-0.122913 1.50197 0.156231 1.12918 0.714517 0.756389 1.2737 0.569993 2.08368 0.569993 3.14442 0.569993 4.20786 0.756389 5.01873 1.12918 5.57702 1.50197 6.1362 2.04134 6.4158 2.74731 6.4158Z" fill="#000000" fill-rule="nonzero" fill-opacity="1" transform="matrix(1 0 0 -1.00257 490.886 171.691)"/><path d="M0.923875 1.07245 1.81533 1.07245 1.81533 0 0.923875 0 0.923875 1.07245Z" fill="#000000" fill-rule="nonzero" fill-opacity="1" transform="matrix(1 0 0 -1.00257 496.386 171.691)"/><path d="M1.65865 0.717219 4.63423 0.717219 4.63423 0 0.633476 0 0.633476 0.717219C0.956741 1.05219 1.39752 1.50153 1.95581 2.06521 2.51499 2.6298 2.86617 2.99404 3.00935 3.15792 3.28219 3.46409 3.47264 3.72342 3.58069 3.93592 3.68965 4.14843 3.74413 4.35734 3.74413 4.56265 3.74413 4.89762 3.62661 5.17046 3.39159 5.38117 3.15657 5.59278 2.85041 5.69858 2.47312 5.69858 2.20568 5.69858 1.92339 5.65221 1.62624 5.55946 1.32998 5.46671 1.01302 5.32579 0.675347 5.13669L0.675347 5.99843C1.01842 6.1362 1.33899 6.24021 1.63704 6.31044 1.93599 6.38068 2.20929 6.4158 2.45691 6.4158 3.10974 6.4158 3.63022 6.25236 4.01832 5.9255 4.40641 5.59953 4.60047 5.1637 4.60047 4.61802 4.60047 4.35869 4.55184 4.11286 4.45459 3.88055 4.35825 3.64913 4.18175 3.37583 3.92512 3.06067 3.85488 2.97873 3.63111 2.74281 3.25382 2.35291 2.87742 1.963 2.34571 1.41778 1.65865 0.717219Z" fill="#000000" fill-rule="nonzero" fill-opacity="1" transform="matrix(1 0 0 -1.00257 499.134 171.691)"/><path d="M0.949538 0.131017 0.949538 0.907667C1.16385 0.805915 1.38041 0.728474 1.59922 0.675347 1.81894 0.62222 2.03459 0.595656 2.2462 0.595656 2.809 0.595656 3.23852 0.784754 3.53477 1.16295 3.83192 1.54114 4.00166 2.11609 4.04398 2.88778 3.88099 2.64556 3.67389 2.45961 3.42266 2.32995 3.17234 2.20028 2.89544 2.13545 2.59198 2.13545 1.96165 2.13545 1.4628 2.3259 1.09541 2.70679 0.728024 3.08859 0.54433 3.61041 0.54433 4.27225 0.54433 4.91878 0.735679 5.43745 1.11838 5.82825 1.50107 6.21995 2.01028 6.4158 2.64601 6.4158 3.37539 6.4158 3.93187 6.1362 4.31547 5.57702 4.69997 5.01873 4.89222 4.20786 4.89222 3.14442 4.89222 2.15121 4.65629 1.35835 4.18445 0.765844 3.7135 0.173339 3.08003-0.122913 2.28402-0.122913 2.06971-0.122913 1.85271-0.101752 1.63299-0.0594306 1.41418-0.0171088 1.18636 0.0463738 0.949538 0.131017ZM2.64601 2.80269C3.0287 2.80269 3.33172 2.93326 3.55503 3.19439 3.77924 3.45643 3.89135 3.81571 3.89135 4.27225 3.89135 4.72517 3.77924 5.08311 3.55503 5.34605 3.33172 5.60899 3.0287 5.74045 2.64601 5.74045 2.26332 5.74045 1.9603 5.60899 1.73699 5.34605 1.51368 5.08311 1.40202 4.72517 1.40202 4.27225 1.40202 3.81571 1.51368 3.45643 1.73699 3.19439 1.9603 2.93326 2.26332 2.80269 2.64601 2.80269Z" fill="#000000" fill-rule="nonzero" fill-opacity="1" transform="matrix(1 0 0 -1.00257 504.633 171.691)"/><g><path d="M55.6972 14.782 371.811 14.782" stroke="#B0B0B0" stroke-width="0.540278" stroke-linecap="butt" stroke-linejoin="round" stroke-miterlimit="4" stroke-dasharray="1.99903 0.864444" stroke-opacity="1" fill="none" fill-rule="nonzero" transform="matrix(1 0 0 1.00257 462 103)"/></g><path d="M0 0-3.78194 0" stroke="#000000" stroke-width="0.864444" stroke-linecap="butt" stroke-linejoin="round" stroke-miterlimit="4" stroke-opacity="1" fill="none" fill-rule="nonzero" transform="matrix(1 0 0 1.00257 517.697 117.82)"/><path d="M2.74731 5.74045C2.30878 5.74045 1.97877 5.52434 1.75725 5.09212 1.53664 4.6608 1.42633 4.01156 1.42633 3.14442 1.42633 2.28088 1.53664 1.63299 1.75725 1.20077 1.97877 0.768545 2.30878 0.552434 2.74731 0.552434 3.18944 0.552434 3.52081 0.768545 3.74142 1.20077 3.96294 1.63299 4.07369 2.28088 4.07369 3.14442 4.07369 4.01156 3.96294 4.6608 3.74142 5.09212 3.52081 5.52434 3.18944 5.74045 2.74731 5.74045ZM2.74731 6.4158C3.45417 6.4158 3.994 6.1362 4.3668 5.57702 4.73959 5.01873 4.92598 4.20786 4.92598 3.14442 4.92598 2.08368 4.73959 1.2737 4.3668 0.714517 3.994 0.156231 3.45417-0.122913 2.74731-0.122913 2.04134-0.122913 1.50197 0.156231 1.12918 0.714517 0.756389 1.2737 0.569993 2.08368 0.569993 3.14442 0.569993 4.20786 0.756389 5.01873 1.12918 5.57702 1.50197 6.1362 2.04134 6.4158 2.74731 6.4158Z" fill="#000000" fill-rule="nonzero" fill-opacity="1" transform="matrix(1 0 0 -1.00257 490.886 121.113)"/><path d="M0.923875 1.07245 1.81533 1.07245 1.81533 0 0.923875 0 0.923875 1.07245Z" fill="#000000" fill-rule="nonzero" fill-opacity="1" transform="matrix(1 0 0 -1.00257 496.386 121.113)"/><path d="M3.50775 3.39835C3.91566 3.311 4.23398 3.12911 4.46269 2.85267 4.69231 2.57713 4.80712 2.23675 4.80712 1.83154 4.80712 1.21022 4.59327 0.728925 4.16554 0.387649 3.73782 0.0472743 3.13-0.122913 2.3421-0.122913 2.07827-0.122913 1.80632-0.0967998 1.52628-0.0445729 1.24624 0.00765394 0.957193 0.0859943 0.659139 0.190448L0.659139 1.01302C0.895061 0.87525 1.15349 0.771247 1.43444 0.70101 1.71629 0.630774 2.01074 0.595656 2.31779 0.595656 2.85176 0.595656 3.25878 0.70101 3.53882 0.911719 3.81886 1.12243 3.95889 1.42903 3.95889 1.83154 3.95889 2.20343 3.82877 2.49383 3.56853 2.70274 3.3083 2.91254 2.94631 3.01745 2.48258 3.01745L1.7478 3.01745 1.7478 3.71846 2.51634 3.71846C2.93506 3.71846 3.25562 3.8022 3.47804 3.96969 3.70046 4.13718 3.81166 4.37851 3.81166 4.69366 3.81166 5.01692 3.69685 5.26501 3.46723 5.4379 3.23852 5.61169 2.9103 5.69858 2.48258 5.69858 2.24846 5.69858 1.99768 5.67292 1.73024 5.62159 1.4628 5.57117 1.1688 5.49283 0.848236 5.38657L0.848236 6.14566C1.1724 6.23571 1.47586 6.30325 1.7586 6.34826 2.04134 6.39328 2.30789 6.4158 2.55822 6.4158 3.20564 6.4158 3.71756 6.26857 4.09396 5.97412 4.47124 5.68057 4.6599 5.28347 4.6599 4.78281 4.6599 4.43342 4.55994 4.13853 4.36004 3.8981 4.16014 3.65768 3.87605 3.4911 3.50775 3.39835Z" fill="#000000" fill-rule="nonzero" fill-opacity="1" transform="matrix(1 0 0 -1.00257 499.134 121.113)"/><path d="M2.74731 5.74045C2.30878 5.74045 1.97877 5.52434 1.75725 5.09212 1.53664 4.6608 1.42633 4.01156 1.42633 3.14442 1.42633 2.28088 1.53664 1.63299 1.75725 1.20077 1.97877 0.768545 2.30878 0.552434 2.74731 0.552434 3.18944 0.552434 3.52081 0.768545 3.74142 1.20077 3.96294 1.63299 4.07369 2.28088 4.07369 3.14442 4.07369 4.01156 3.96294 4.6608 3.74142 5.09212 3.52081 5.52434 3.18944 5.74045 2.74731 5.74045ZM2.74731 6.4158C3.45417 6.4158 3.994 6.1362 4.3668 5.57702 4.73959 5.01873 4.92598 4.20786 4.92598 3.14442 4.92598 2.08368 4.73959 1.2737 4.3668 0.714517 3.994 0.156231 3.45417-0.122913 2.74731-0.122913 2.04134-0.122913 1.50197 0.156231 1.12918 0.714517 0.756389 1.2737 0.569993 2.08368 0.569993 3.14442 0.569993 4.20786 0.756389 5.01873 1.12918 5.57702 1.50197 6.1362 2.04134 6.4158 2.74731 6.4158Z" fill="#000000" fill-rule="nonzero" fill-opacity="1" transform="matrix(1 0 0 -1.00257 504.633 121.113)"/><path d="M8.35134 8.72414 8.35134 7.37682C7.92047 7.77797 7.46124 8.07716 6.97364 8.27435 6.48603 8.47291 5.96805 8.57218 5.41966 8.57218 4.33911 8.57218 3.5118 8.24194 2.93776 7.58145 2.36372 6.92096 2.07669 5.96602 2.07669 4.71663 2.07669 3.47128 2.36372 2.51837 2.93776 1.85788 3.5118 1.19739 4.33911 0.867146 5.41966 0.867146 5.96805 0.867146 6.48603 0.966422 6.97364 1.16497 7.46124 1.36353 7.92047 1.66338 8.35134 2.06454L8.35134 0.727349C7.90426 0.423443 7.43016 0.195175 6.92906 0.0425469 6.4293-0.108731 5.90119-0.18437 5.3447-0.18437 3.91296-0.18437 2.78514 0.253255 1.96121 1.12851 1.13864 2.00511 0.727349 3.20115 0.727349 4.71663 0.727349 6.23616 1.13864 7.43355 1.96121 8.3088 2.78514 9.1854 3.91296 9.6237 5.3447 9.6237 5.9093 9.6237 6.44146 9.54873 6.94122 9.39881 7.44232 9.24888 7.91236 9.02399 8.35134 8.72414Z" fill="#000000" fill-rule="nonzero" fill-opacity="1" transform="matrix(6.12323e-17 -1.00257 -1 -6.13897e-17 483.867 278.666)"/><path d="M1.27235 9.45351 2.55079 9.45351 2.55079 1.07583 7.15395 1.07583 7.15395 0 1.27235 0 1.27235 9.45351Z" fill="#000000" fill-rule="nonzero" fill-opacity="1" transform="matrix(6.12323e-17 -1.00257 -1 -6.13897e-17 483.867 269.589)"/><path d="M1.27235 9.45351 2.55079 9.45351 2.55079 0 1.27235 0 1.27235 9.45351Z" fill="#000000" fill-rule="nonzero" fill-opacity="1" transform="matrix(6.12323e-17 -1.00257 -1 -6.13897e-17 483.867 262.346)"/><path d="M2.55079 8.40199 2.55079 4.85034 4.15946 4.85034C4.75512 4.85034 5.21503 5.00432 5.5392 5.31228 5.86472 5.62024 6.02747 6.05922 6.02747 6.62921 6.02747 7.19514 5.86472 7.6321 5.5392 7.94006 5.21503 8.24802 4.75512 8.40199 4.15946 8.40199L2.55079 8.40199ZM1.27235 9.45351 4.15946 9.45351C5.21975 9.45351 6.02073 9.21377 6.56235 8.73427 7.10533 8.25476 7.37682 7.55308 7.37682 6.62921 7.37682 5.69587 7.10533 4.99081 6.56235 4.51402 6.02073 4.03723 5.21975 3.79883 4.15946 3.79883L2.55079 3.79883 2.55079 0 1.27235 0 1.27235 9.45351Z" fill="#000000" fill-rule="nonzero" fill-opacity="1" transform="matrix(6.12323e-17 -1.00257 -1 -6.13897e-17 483.867 258.512)"/><path d="M0.634151 4.07032 4.04601 4.07032 4.04601 3.03298 0.634151 3.03298 0.634151 4.07032Z" fill="#000000" fill-rule="nonzero" fill-opacity="1" transform="matrix(6.12323e-17 -1.00257 -1 -6.13897e-17 483.867 250.965)"/><path d="M6.93919 9.14353 6.93919 7.89548C6.4543 8.12781 5.99641 8.30069 5.56554 8.41415 5.13466 8.52897 4.71865 8.58636 4.31749 8.58636 3.62189 8.58636 3.08499 8.45129 2.70679 8.18116 2.32859 7.91102 2.1395 7.52674 2.1395 7.02834 2.1395 6.60962 2.26511 6.29355 2.51634 6.08015 2.76757 5.86809 3.24369 5.69656 3.9447 5.56554L4.71663 5.40751C5.67022 5.22516 6.37393 4.90505 6.82776 4.44716 7.28159 3.98928 7.50851 3.37674 7.50851 2.60954 7.50851 1.69242 7.20122 0.997487 6.58666 0.524745 5.97344 0.0520018 5.07388-0.18437 3.88797-0.18437 3.44089-0.18437 2.96477-0.133719 2.45961-0.0324167 1.9558 0.0688854 1.43376 0.218813 0.893484 0.417365L0.893484 1.73429C1.41215 1.44389 1.92069 1.2244 2.41909 1.07583 2.9175 0.928602 3.40713 0.85499 3.88797 0.85499 4.61735 0.85499 5.18059 0.998164 5.57769 1.28451 5.9748 1.57221 6.17335 1.98214 6.17335 2.51432 6.17335 2.97761 6.03086 3.34027 5.74585 3.6023 5.46085 3.86433 4.99352 4.06086 4.34383 4.19188L3.56381 4.34383C2.61021 4.53292 1.92001 4.83008 1.49319 5.23529 1.06772 5.6405 0.85499 6.20441 0.85499 6.92704 0.85499 7.76312 1.14944 8.42159 1.73834 8.90243 2.32725 9.38327 3.13834 9.6237 4.17162 9.6237 4.61599 9.6237 5.0678 9.58318 5.52704 9.50214 5.98762 9.42245 6.45835 9.30291 6.93919 9.14353Z" fill="#000000" fill-rule="nonzero" fill-opacity="1" transform="matrix(6.12323e-17 -1.00257 -1 -6.13897e-17 483.867 246.274)"/><path d="M6.3253 6.81966 6.3253 5.72965C5.99573 5.91199 5.66548 6.0484 5.33457 6.13891 5.00365 6.22941 4.66936 6.27465 4.33168 6.27465 3.5753 6.27465 2.98774 6.03491 2.56902 5.55541 2.15166 5.07726 1.94297 4.40528 1.94297 3.53949 1.94297 2.67371 2.15166 2.00105 2.56902 1.52156 2.98774 1.04341 3.5753 0.804339 4.33168 0.804339 4.66936 0.804339 5.00365 0.849586 5.33457 0.940083 5.66548 1.03058 5.99573 1.167 6.3253 1.34934L6.3253 0.27149C5.99978 0.120212 5.66279 0.00675347 5.31431-0.0688854 4.96719-0.145875 4.59709-0.18437 4.20404-0.18437 3.13564-0.18437 2.28673 0.151278 1.6573 0.822573 1.02923 1.49387 0.715193 2.3995 0.715193 3.53949 0.715193 4.6957 1.03261 5.6047 1.66743 6.26655 2.30361 6.92973 3.17481 7.26133 4.28103 7.26133 4.63897 7.26133 4.98878 7.2242 5.33052 7.1499 5.67225 7.07696 6.00383 6.96689 6.3253 6.81966Z" fill="#000000" fill-rule="nonzero" fill-opacity="1" transform="matrix(6.12323e-17 -1.00257 -1 -6.13897e-17 483.867 238.022)"/><path d="M3.96902 6.27465C3.345 6.27465 2.85131 6.03086 2.48798 5.54325 2.12465 5.05564 1.94297 4.38774 1.94297 3.53949 1.94297 2.69125 2.12329 2.02334 2.48393 1.53574 2.84592 1.04814 3.34094 0.804339 3.96902 0.804339 4.59034 0.804339 5.08198 1.04881 5.44397 1.53777 5.8073 2.02807 5.98898 2.6953 5.98898 3.53949 5.98898 4.37963 5.8073 5.04551 5.44397 5.53717 5.08198 6.02883 4.59034 6.27465 3.96902 6.27465ZM3.96902 7.26133C4.98204 7.26133 5.7776 6.93176 6.35569 6.27263 6.93514 5.61483 7.22486 4.7038 7.22486 3.53949 7.22486 2.37924 6.93514 1.46821 6.35569 0.806365 5.7776 0.145875 4.98204-0.18437 3.96902-0.18437 2.95194-0.18437 2.15504 0.145875 1.57829 0.806365 1.00289 1.46821 0.715193 2.37924 0.715193 3.53949 0.715193 4.7038 1.00289 5.61483 1.57829 6.27263 2.15504 6.93176 2.95194 7.26133 3.96902 7.26133Z" fill="#000000" fill-rule="nonzero" fill-opacity="1" transform="matrix(6.12323e-17 -1.00257 -1 -6.13897e-17 483.867 230.875)"/><path d="M5.33052 6.00316C5.19949 6.07879 5.057 6.13419 4.90302 6.1693 4.74904 6.20577 4.57952 6.224 4.39448 6.224 3.73535 6.224 3.22951 6.00991 2.87698 5.58175 2.52445 5.15358 2.34818 4.53833 2.34818 3.73602L2.34818 0 1.17713 0 1.17713 7.09115 2.34818 7.09115 2.34818 5.98898C2.594 6.41986 2.91278 6.73928 3.30447 6.9473 3.69753 7.15665 4.175 7.26133 4.73689 7.26133 4.81657 7.26133 4.90505 7.25592 5.0023 7.24513 5.09955 7.23566 5.20693 7.22014 5.32444 7.19853L5.33052 6.00316Z" fill="#000000" fill-rule="nonzero" fill-opacity="1" transform="matrix(6.12323e-17 -1.00257 -1 -6.13897e-17 483.867 222.921)"/><path d="M7.28767 3.83732 7.28767 3.26801 1.93082 3.26801C1.98214 2.46569 2.22393 1.8545 2.65614 1.43444 3.08836 1.01437 3.69078 0.804339 4.46337 0.804339 4.91046 0.804339 5.34403 0.859042 5.76409 0.968448 6.18415 1.07785 6.60151 1.24264 7.01618 1.4628L7.01618 0.360635C6.59746 0.183695 6.16863 0.048625 5.72965-0.0445729 5.29066-0.137771 4.84562-0.18437 4.39448-0.18437 3.2626-0.18437 2.36642 0.144524 1.70593 0.802313 1.04544 1.46145 0.715193 2.3529 0.715193 3.47669 0.715193 4.63694 1.02855 5.55743 1.65528 6.23818 2.28199 6.92029 3.12754 7.26133 4.19188 7.26133 5.14548 7.26133 5.89983 6.95404 6.45497 6.33948 7.0101 5.72626 7.28767 4.89222 7.28767 3.83732ZM6.1227 4.17972C6.11459 4.8159 5.9363 5.32377 5.58782 5.70331 5.23934 6.0842 4.77808 6.27465 4.20404 6.27465 3.55435 6.27465 3.03434 6.09095 2.64398 5.72357 2.25363 5.35619 2.02874 4.83886 1.96931 4.17162L6.1227 4.17972Z" fill="#000000" fill-rule="nonzero" fill-opacity="1" transform="matrix(6.12323e-17 -1.00257 -1 -6.13897e-17 483.867 217.869)"/><path d="M55.6972 267.027 55.6972 14.782" stroke="#000000" stroke-width="0.864444" stroke-linecap="square" stroke-linejoin="miter" stroke-miterlimit="4" stroke-opacity="1" fill="none" fill-rule="nonzero" transform="matrix(1 0 0 1.00257 462 103)"/><path d="M371.811 267.027 371.811 14.782" stroke="#000000" stroke-width="0.864444" stroke-linecap="square" stroke-linejoin="miter" stroke-miterlimit="4" stroke-opacity="1" fill="none" fill-rule="nonzero" transform="matrix(1 0 0 1.00257 462 103)"/><path d="M55.6972 267.027 371.811 267.027" stroke="#000000" stroke-width="0.864444" stroke-linecap="square" stroke-linejoin="miter" stroke-miterlimit="4" stroke-opacity="1" fill="none" fill-rule="nonzero" transform="matrix(1 0 0 1.00257 462 103)"/><path d="M55.6972 14.782 371.811 14.782" stroke="#000000" stroke-width="0.864444" stroke-linecap="square" stroke-linejoin="miter" stroke-miterlimit="4" stroke-opacity="1" fill="none" fill-rule="nonzero" transform="matrix(1 0 0 1.00257 462 103)"/><path d="M6.93919 9.14353 6.93919 7.89548C6.4543 8.12781 5.99641 8.30069 5.56554 8.41415 5.13466 8.52897 4.71865 8.58636 4.31749 8.58636 3.62189 8.58636 3.08499 8.45129 2.70679 8.18116 2.32859 7.91102 2.1395 7.52674 2.1395 7.02834 2.1395 6.60962 2.26511 6.29355 2.51634 6.08015 2.76757 5.86809 3.24369 5.69656 3.9447 5.56554L4.71663 5.40751C5.67022 5.22516 6.37393 4.90505 6.82776 4.44716 7.28159 3.98928 7.50851 3.37674 7.50851 2.60954 7.50851 1.69242 7.20122 0.997487 6.58666 0.524745 5.97344 0.0520018 5.07388-0.18437 3.88797-0.18437 3.44089-0.18437 2.96477-0.133719 2.45961-0.0324167 1.9558 0.0688854 1.43376 0.218813 0.893484 0.417365L0.893484 1.73429C1.41215 1.44389 1.92069 1.2244 2.41909 1.07583 2.9175 0.928602 3.40713 0.85499 3.88797 0.85499 4.61735 0.85499 5.18059 0.998164 5.57769 1.28451 5.9748 1.57221 6.17335 1.98214 6.17335 2.51432 6.17335 2.97761 6.03086 3.34027 5.74585 3.6023 5.46085 3.86433 4.99352 4.06086 4.34383 4.19188L3.56381 4.34383C2.61021 4.53292 1.92001 4.83008 1.49319 5.23529 1.06772 5.6405 0.85499 6.20441 0.85499 6.92704 0.85499 7.76312 1.14944 8.42159 1.73834 8.90243 2.32725 9.38327 3.13834 9.6237 4.17162 9.6237 4.61599 9.6237 5.0678 9.58318 5.52704 9.50214 5.98762 9.42245 6.45835 9.30291 6.93919 9.14353Z" fill="#000000" fill-rule="nonzero" fill-opacity="1" transform="matrix(1 0 0 -1.00257 650.419 298.148)"/><path d="M2.37452 9.10503 2.37452 7.09115 4.77335 7.09115 4.77335 6.18551 2.37452 6.18551 2.37452 2.33603C2.37452 1.75793 2.45354 1.38649 2.61157 1.2217 2.7696 1.05692 3.09174 0.974526 3.57799 0.974526L4.77335 0.974526 4.77335 0 3.57799 0C2.67843 0 2.05779 0.167486 1.71606 0.502458 1.37433 0.838781 1.20347 1.44997 1.20347 2.33603L1.20347 6.18551 0.348479 6.18551 0.348479 7.09115 1.20347 7.09115 1.20347 9.10503 2.37452 9.10503Z" fill="#000000" fill-rule="nonzero" fill-opacity="1" transform="matrix(1 0 0 -1.00257 658.649 298.148)"/><path d="M4.44514 3.56381C3.50369 3.56381 2.85131 3.45643 2.48798 3.24167 2.12465 3.02691 1.94297 2.65952 1.94297 2.1395 1.94297 1.72619 2.07939 1.39797 2.35223 1.15484 2.62508 0.91307 2.99516 0.792182 3.46251 0.792182 4.10948 0.792182 4.62815 1.02113 5.01851 1.47901 5.40886 1.9369 5.60403 2.54538 5.60403 3.30447L5.60403 3.56381 4.44514 3.56381ZM6.76901 4.04601 6.76901 0 5.60403 0 5.60403 1.07583C5.33795 0.646307 5.00635 0.328893 4.60924 0.123589 4.21214-0.081717 3.72656-0.18437 3.15252-0.18437 2.4272-0.18437 1.84978 0.0195851 1.42026 0.427495 0.992086 0.835404 0.778 1.38109 0.778 2.06454 0.778 2.86144 1.04476 3.46251 1.57829 3.86771 2.11316 4.27292 2.91006 4.47553 3.96902 4.47553L5.60403 4.47553 5.60403 4.59101C5.60403 5.12724 5.42777 5.54189 5.07523 5.835 4.7227 6.12811 4.22768 6.27465 3.59015 6.27465 3.18494 6.27465 2.78986 6.22603 2.40491 6.12878 2.02131 6.03153 1.65258 5.88565 1.29869 5.69115L1.29869 6.76901C1.72416 6.93378 2.13747 7.0567 2.53863 7.13774 2.93979 7.22014 3.33014 7.26133 3.70968 7.26133 4.73622 7.26133 5.50273 6.99525 6.00924 6.46307 6.51575 5.93225 6.76901 5.12655 6.76901 4.04601Z" fill="#000000" fill-rule="nonzero" fill-opacity="1" transform="matrix(1 0 0 -1.00257 663.734 298.148)"/><path d="M6.31315 3.53949C6.31315 4.39584 6.13688 5.0678 5.78435 5.55541 5.43182 6.04301 4.94759 6.28681 4.33168 6.28681 3.7144 6.28681 3.22951 6.04301 2.87698 5.55541 2.52445 5.0678 2.34818 4.39584 2.34818 3.53949 2.34818 2.68315 2.52445 2.01118 2.87698 1.52358 3.22951 1.03598 3.7144 0.792182 4.33168 0.792182 4.94759 0.792182 5.43182 1.03598 5.78435 1.52358 6.13688 2.01118 6.31315 2.68315 6.31315 3.53949ZM2.34818 6.01532C2.594 6.43673 2.90332 6.74941 3.27611 6.95338 3.65026 7.15867 4.09666 7.26133 4.61532 7.26133 5.47706 7.26133 6.17673 6.9196 6.7143 6.23616 7.25323 5.55271 7.52269 4.65382 7.52269 3.53949 7.52269 2.42517 7.25323 1.52561 6.7143 0.840807 6.17673 0.157356 5.47706-0.18437 4.61532-0.18437 4.09666-0.18437 3.65026-0.081717 3.27611 0.123589 2.90332 0.328893 2.594 0.642255 2.34818 1.06367L2.34818 0 1.17713 0 1.17713 9.85264 2.34818 9.85264 2.34818 6.01532Z" fill="#000000" fill-rule="nonzero" fill-opacity="1" transform="matrix(1 0 0 -1.00257 671.679 298.148)"/><path d="M1.2217 9.85264 2.38668 9.85264 2.38668 0 1.2217 0 1.2217 9.85264Z" fill="#000000" fill-rule="nonzero" fill-opacity="1" transform="matrix(1 0 0 -1.00257 679.91 298.148)"/><path d="M7.28767 3.83732 7.28767 3.26801 1.93082 3.26801C1.98214 2.46569 2.22393 1.8545 2.65614 1.43444 3.08836 1.01437 3.69078 0.804339 4.46337 0.804339 4.91046 0.804339 5.34403 0.859042 5.76409 0.968448 6.18415 1.07785 6.60151 1.24264 7.01618 1.4628L7.01618 0.360635C6.59746 0.183695 6.16863 0.048625 5.72965-0.0445729 5.29066-0.137771 4.84562-0.18437 4.39448-0.18437 3.2626-0.18437 2.36642 0.144524 1.70593 0.802313 1.04544 1.46145 0.715193 2.3529 0.715193 3.47669 0.715193 4.63694 1.02855 5.55743 1.65528 6.23818 2.28199 6.92029 3.12754 7.26133 4.19188 7.26133 5.14548 7.26133 5.89983 6.95404 6.45497 6.33948 7.0101 5.72626 7.28767 4.89222 7.28767 3.83732ZM6.1227 4.17972C6.11459 4.8159 5.9363 5.32377 5.58782 5.70331 5.23934 6.0842 4.77808 6.27465 4.20404 6.27465 3.55435 6.27465 3.03434 6.09095 2.64398 5.72357 2.25363 5.35619 2.02874 4.83886 1.96931 4.17162L6.1227 4.17972Z" fill="#000000" fill-rule="nonzero" fill-opacity="1" transform="matrix(1 0 0 -1.00257 683.513 298.148)"/><path d="M2.55079 8.40199 2.55079 1.05152 4.09666 1.05152C5.40143 1.05152 6.35636 1.34664 6.96148 1.9369 7.5666 2.5285 7.86915 3.46184 7.86915 4.73689 7.86915 6.00249 7.5666 6.92973 6.96148 7.51864 6.35636 8.10755 5.40143 8.40199 4.09666 8.40199L2.55079 8.40199ZM1.27235 9.45351 3.90013 9.45351C5.73167 9.45351 7.07561 9.07261 7.93195 8.31082 8.78964 7.54903 9.21849 6.35772 9.21849 4.73689 9.21849 3.10659 8.78761 1.90921 7.92588 1.14471 7.06548 0.381571 5.72357 0 3.90013 0L1.27235 0 1.27235 9.45351Z" fill="#000000" fill-rule="nonzero" fill-opacity="1" transform="matrix(1 0 0 -1.00257 695.612 298.148)"/><path d="M1.2217 7.09115 2.38668 7.09115 2.38668 0 1.2217 0 1.2217 7.09115ZM1.2217 9.85264 2.38668 9.85264 2.38668 8.37566 1.2217 8.37566 1.2217 9.85264Z" fill="#000000" fill-rule="nonzero" fill-opacity="1" transform="matrix(1 0 0 -1.00257 705.597 298.148)"/><path d="M4.81185 9.85264 4.81185 8.88217 3.69753 8.88217C3.28016 8.88217 2.98977 8.79774 2.82633 8.62891 2.66424 8.46008 2.5832 8.15618 2.5832 7.71719L2.5832 7.09115 4.50186 7.09115 4.50186 6.18551 2.5832 6.18551 2.5832 0 1.41215 0 1.41215 6.18551 0.297828 6.18551 0.297828 7.09115 1.41215 7.09115 1.41215 7.5855C1.41215 8.3743 1.59585 8.94903 1.96323 9.30966 2.33062 9.67165 2.91278 9.85264 3.70968 9.85264L4.81185 9.85264Z" fill="#000000" fill-rule="nonzero" fill-opacity="1" transform="matrix(1 0 0 -1.00257 709.199 298.148)"/><path d="M4.81185 9.85264 4.81185 8.88217 3.69753 8.88217C3.28016 8.88217 2.98977 8.79774 2.82633 8.62891 2.66424 8.46008 2.5832 8.15618 2.5832 7.71719L2.5832 7.09115 4.50186 7.09115 4.50186 6.18551 2.5832 6.18551 2.5832 0 1.41215 0 1.41215 6.18551 0.297828 6.18551 0.297828 7.09115 1.41215 7.09115 1.41215 7.5855C1.41215 8.3743 1.59585 8.94903 1.96323 9.30966 2.33062 9.67165 2.91278 9.85264 3.70968 9.85264L4.81185 9.85264Z" fill="#000000" fill-rule="nonzero" fill-opacity="1" transform="matrix(1 0 0 -1.00257 713.764 298.148)"/><path d="M1.10217 2.79796 1.10217 7.09115 2.26714 7.09115 2.26714 2.84254C2.26714 2.17125 2.39748 1.66743 2.65817 1.33111 2.92019 0.996138 3.31325 0.828651 3.83732 0.828651 4.4654 0.828651 4.96178 1.02923 5.32646 1.43039 5.69251 1.83154 5.87552 2.37857 5.87552 3.07148L5.87552 7.09115 7.04049 7.09115 7.04049 0 5.87552 0 5.87552 1.09001C5.59323 0.659138 5.26501 0.339024 4.89086 0.129667 4.51807-0.0796909 4.0845-0.18437 3.59015-0.18437 2.77568-0.18437 2.15707 0.0688854 1.73429 0.575396 1.31288 1.08191 1.10217 1.82276 1.10217 2.79796Z" fill="#000000" fill-rule="nonzero" fill-opacity="1" transform="matrix(1 0 0 -1.00257 718.329 298.148)"/><path d="M5.7418 6.88246 5.7418 5.7803C5.41358 5.94913 5.07185 6.07543 4.71663 6.15917 4.36274 6.24426 3.99535 6.28681 3.61446 6.28681 3.03637 6.28681 2.6028 6.19833 2.31374 6.0214 2.02469 5.84446 1.88017 5.57836 1.88017 5.22314 1.88017 4.953 1.98349 4.74094 2.19015 4.58696 2.39681 4.43298 2.81281 4.28644 3.43819 4.14731L3.83732 4.05816C4.66395 3.88123 5.2515 3.63134 5.59998 3.30853 5.94846 2.98572 6.1227 2.53525 6.1227 1.95716 6.1227 1.29802 5.86201 0.775974 5.34065 0.391026 4.81928 0.00742883 4.10273-0.18437 3.19102-0.18437 2.81148-0.18437 2.41571-0.147226 2.00376-0.0729375 1.59179 0.0013507 1.15822 0.112108 0.703036 0.259333L0.703036 1.4628C1.13391 1.23859 1.55803 1.07042 1.97539 0.958318 2.39276 0.84756 2.80674 0.792182 3.21735 0.792182 3.76574 0.792182 4.18716 0.886055 4.4816 1.0738 4.77741 1.26155 4.92531 1.52628 4.92531 1.86801 4.92531 2.18407 4.8186 2.42653 4.60519 2.59536 4.39313 2.76419 3.9258 2.92696 3.20317 3.08364L2.79796 3.17886C2.07669 3.33014 1.55533 3.56314 1.23386 3.87784 0.913745 4.19255 0.753688 4.6241 0.753688 5.17248 0.753688 5.83972 0.99006 6.35434 1.4628 6.71633 1.93554 7.07966 2.60685 7.26133 3.47669 7.26133 3.90621 7.26133 4.31075 7.22959 4.69029 7.16611 5.07118 7.10397 5.42169 7.00944 5.7418 6.88246Z" fill="#000000" fill-rule="nonzero" fill-opacity="1" transform="matrix(1 0 0 -1.00257 726.547 298.148)"/><path d="M1.2217 7.09115 2.38668 7.09115 2.38668 0 1.2217 0 1.2217 7.09115ZM1.2217 9.85264 2.38668 9.85264 2.38668 8.37566 1.2217 8.37566 1.2217 9.85264Z" fill="#000000" fill-rule="nonzero" fill-opacity="1" transform="matrix(1 0 0 -1.00257 733.303 298.148)"/><path d="M3.96902 6.27465C3.345 6.27465 2.85131 6.03086 2.48798 5.54325 2.12465 5.05564 1.94297 4.38774 1.94297 3.53949 1.94297 2.69125 2.12329 2.02334 2.48393 1.53574 2.84592 1.04814 3.34094 0.804339 3.96902 0.804339 4.59034 0.804339 5.08198 1.04881 5.44397 1.53777 5.8073 2.02807 5.98898 2.6953 5.98898 3.53949 5.98898 4.37963 5.8073 5.04551 5.44397 5.53717 5.08198 6.02883 4.59034 6.27465 3.96902 6.27465ZM3.96902 7.26133C4.98204 7.26133 5.7776 6.93176 6.35569 6.27263 6.93514 5.61483 7.22486 4.7038 7.22486 3.53949 7.22486 2.37924 6.93514 1.46821 6.35569 0.806365 5.7776 0.145875 4.98204-0.18437 3.96902-0.18437 2.95194-0.18437 2.15504 0.145875 1.57829 0.806365 1.00289 1.46821 0.715193 2.37924 0.715193 3.53949 0.715193 4.7038 1.00289 5.61483 1.57829 6.27263 2.15504 6.93176 2.95194 7.26133 3.96902 7.26133Z" fill="#000000" fill-rule="nonzero" fill-opacity="1" transform="matrix(1 0 0 -1.00257 736.905 298.148)"/><path d="M7.11748 4.28103 7.11748 0 5.95251 0 5.95251 4.24253C5.95251 4.91382 5.82149 5.41561 5.55946 5.74788 5.29743 6.08151 4.90505 6.24831 4.38233 6.24831 3.7529 6.24831 3.25652 6.04773 2.89319 5.64658 2.52986 5.24678 2.34818 4.70042 2.34818 4.00751L2.34818 0 1.17713 0 1.17713 7.09115 2.34818 7.09115 2.34818 5.98898C2.62778 6.41581 2.95599 6.73456 3.33284 6.94527 3.71104 7.15598 4.14731 7.26133 4.64166 7.26133 5.45613 7.26133 6.07205 7.00944 6.48941 6.50562 6.90813 6.0018 7.11748 5.26027 7.11748 4.28103Z" fill="#000000" fill-rule="nonzero" fill-opacity="1" transform="matrix(1 0 0 -1.00257 744.839 298.148)"/><path d="M0.386974 7.09115 1.62083 7.09115 3.83732 1.14066 6.05381 7.09115 7.28767 7.09115 4.62748 0 3.04514 0 0.386974 7.09115Z" fill="#000000" fill-rule="nonzero" fill-opacity="1" transform="matrix(1 0 0 -1.00257 757.178 298.148)"/><path d="M2.48798 1.07583 6.95135 1.07583 6.95135 0 0.950214 0 0.950214 1.07583C1.43511 1.57829 2.09628 2.25229 2.93371 3.09782 3.77249 3.9447 4.29926 4.49107 4.51402 4.73689 4.92328 5.19613 5.20895 5.58513 5.37104 5.90389 5.53448 6.22264 5.61619 6.53601 5.61619 6.84397 5.61619 7.34643 5.43992 7.75569 5.08739 8.07175 4.73486 8.38917 4.27562 8.54787 3.70968 8.54787 3.30853 8.54787 2.88508 8.47832 2.43935 8.33919 1.99498 8.20006 1.51953 7.98868 1.01302 7.70504L1.01302 8.99765C1.52764 9.20431 2.00848 9.36031 2.45556 9.46567 2.90399 9.57102 3.31394 9.6237 3.68537 9.6237 4.66462 9.6237 5.44533 9.37855 6.02747 8.88824 6.60962 8.3993 6.9007 7.74556 6.9007 6.92704 6.9007 6.53804 6.82776 6.1693 6.68189 5.82082 6.53737 5.4737 6.27263 5.06375 5.88768 4.59101 5.78232 4.46809 5.44667 4.11422 4.88073 3.52936 4.31614 2.94451 3.51857 2.12668 2.48798 1.07583Z" fill="#000000" fill-rule="nonzero" fill-opacity="1" transform="matrix(1 0 0 -1.00257 764.852 298.148)"/><path d="M1.38581 1.60868 2.723 1.60868 2.723 0 1.38581 0 1.38581 1.60868Z" fill="#000000" fill-rule="nonzero" fill-opacity="1" transform="matrix(1 0 0 -1.00257 773.102 298.148)"/><path d="M1.60868 1.07583 3.69753 1.07583 3.69753 8.28854 1.42431 7.83268 1.42431 8.99765 3.68537 9.45351 4.9638 9.45351 4.9638 1.07583 7.05265 1.07583 7.05265 0 1.60868 0 1.60868 1.07583Z" fill="#000000" fill-rule="nonzero" fill-opacity="1" transform="matrix(1 0 0 -1.00257 777.224 298.148)"/><path d="M6.93919 9.14353 6.93919 7.89548C6.4543 8.12781 5.99641 8.30069 5.56554 8.41415 5.13466 8.52897 4.71865 8.58636 4.31749 8.58636 3.62189 8.58636 3.08499 8.45129 2.70679 8.18116 2.32859 7.91102 2.1395 7.52674 2.1395 7.02834 2.1395 6.60962 2.26511 6.29355 2.51634 6.08015 2.76757 5.86809 3.24369 5.69656 3.9447 5.56554L4.71663 5.40751C5.67022 5.22516 6.37393 4.90505 6.82776 4.44716 7.28159 3.98928 7.50851 3.37674 7.50851 2.60954 7.50851 1.69242 7.20122 0.997487 6.58666 0.524745 5.97344 0.0520018 5.07388-0.18437 3.88797-0.18437 3.44089-0.18437 2.96477-0.133719 2.45961-0.0324167 1.9558 0.0688854 1.43376 0.218813 0.893484 0.417365L0.893484 1.73429C1.41215 1.44389 1.92069 1.2244 2.41909 1.07583 2.9175 0.928602 3.40713 0.85499 3.88797 0.85499 4.61735 0.85499 5.18059 0.998164 5.57769 1.28451 5.9748 1.57221 6.17335 1.98214 6.17335 2.51432 6.17335 2.97761 6.03086 3.34027 5.74585 3.6023 5.46085 3.86433 4.99352 4.06086 4.34383 4.19188L3.56381 4.34383C2.61021 4.53292 1.92001 4.83008 1.49319 5.23529 1.06772 5.6405 0.85499 6.20441 0.85499 6.92704 0.85499 7.76312 1.14944 8.42159 1.73834 8.90243 2.32725 9.38327 3.13834 9.6237 4.17162 9.6237 4.61599 9.6237 5.0678 9.58318 5.52704 9.50214 5.98762 9.42245 6.45835 9.30291 6.93919 9.14353Z" fill="#000000" fill-rule="nonzero" fill-opacity="1" transform="matrix(1 0 0 -1.00257 723.939 195.031)"/><path d="M2.55079 8.40199 2.55079 1.05152 4.09666 1.05152C5.40143 1.05152 6.35636 1.34664 6.96148 1.9369 7.5666 2.5285 7.86915 3.46184 7.86915 4.73689 7.86915 6.00249 7.5666 6.92973 6.96148 7.51864 6.35636 8.10755 5.40143 8.40199 4.09666 8.40199L2.55079 8.40199ZM1.27235 9.45351 3.90013 9.45351C5.73167 9.45351 7.07561 9.07261 7.93195 8.31082 8.78964 7.54903 9.21849 6.35772 9.21849 4.73689 9.21849 3.10659 8.78761 1.90921 7.92588 1.14471 7.06548 0.381571 5.72357 0 3.90013 0L1.27235 0 1.27235 9.45351Z" fill="#000000" fill-rule="nonzero" fill-opacity="1" transform="matrix(1 0 0 -1.00257 732.169 195.031)"/><path d="M0.816495 9.45351 2.19015 9.45351 4.54036 5.93833 6.9007 9.45351 8.27435 9.45351 5.23529 4.91315 8.47696 0 7.1033 0 4.44514 4.01967 1.76671 0 0.386974 0 3.76033 5.04687 0.816495 9.45351Z" fill="#000000" fill-rule="nonzero" fill-opacity="1" transform="matrix(1 0 0 -1.00257 742.154 195.031)"/><path d="M1.27235 9.45351 2.55079 9.45351 2.55079 1.07583 7.15395 1.07583 7.15395 0 1.27235 0 1.27235 9.45351Z" fill="#000000" fill-rule="nonzero" fill-opacity="1" transform="matrix(1 0 0 -1.00257 751.037 195.031)"/><path d="M2.55079 8.40199 2.55079 4.85034 4.15946 4.85034C4.75512 4.85034 5.21503 5.00432 5.5392 5.31228 5.86472 5.62024 6.02747 6.05922 6.02747 6.62921 6.02747 7.19514 5.86472 7.6321 5.5392 7.94006 5.21503 8.24802 4.75512 8.40199 4.15946 8.40199L2.55079 8.40199ZM1.27235 9.45351 4.15946 9.45351C5.21975 9.45351 6.02073 9.21377 6.56235 8.73427 7.10533 8.25476 7.37682 7.55308 7.37682 6.62921 7.37682 5.69587 7.10533 4.99081 6.56235 4.51402 6.02073 4.03723 5.21975 3.79883 4.15946 3.79883L2.55079 3.79883 2.55079 0 1.27235 0 1.27235 9.45351Z" fill="#000000" fill-rule="nonzero" fill-opacity="1" transform="matrix(1 0 0 -1.00257 670.91 255.915)"/><path d="M1.2217 9.85264 2.38668 9.85264 2.38668 0 1.2217 0 1.2217 9.85264Z" fill="#000000" fill-rule="nonzero" fill-opacity="1" transform="matrix(1 0 0 -1.00257 678.73 255.915)"/><path d="M4.44514 3.56381C3.50369 3.56381 2.85131 3.45643 2.48798 3.24167 2.12465 3.02691 1.94297 2.65952 1.94297 2.1395 1.94297 1.72619 2.07939 1.39797 2.35223 1.15484 2.62508 0.91307 2.99516 0.792182 3.46251 0.792182 4.10948 0.792182 4.62815 1.02113 5.01851 1.47901 5.40886 1.9369 5.60403 2.54538 5.60403 3.30447L5.60403 3.56381 4.44514 3.56381ZM6.76901 4.04601 6.76901 0 5.60403 0 5.60403 1.07583C5.33795 0.646307 5.00635 0.328893 4.60924 0.123589 4.21214-0.081717 3.72656-0.18437 3.15252-0.18437 2.4272-0.18437 1.84978 0.0195851 1.42026 0.427495 0.992086 0.835404 0.778 1.38109 0.778 2.06454 0.778 2.86144 1.04476 3.46251 1.57829 3.86771 2.11316 4.27292 2.91006 4.47553 3.96902 4.47553L5.60403 4.47553 5.60403 4.59101C5.60403 5.12724 5.42777 5.54189 5.07523 5.835 4.7227 6.12811 4.22768 6.27465 3.59015 6.27465 3.18494 6.27465 2.78986 6.22603 2.40491 6.12878 2.02131 6.03153 1.65258 5.88565 1.29869 5.69115L1.29869 6.76901C1.72416 6.93378 2.13747 7.0567 2.53863 7.13774 2.93979 7.22014 3.33014 7.26133 3.70968 7.26133 4.73622 7.26133 5.50273 6.99525 6.00924 6.46307 6.51575 5.93225 6.76901 5.12655 6.76901 4.04601Z" fill="#000000" fill-rule="nonzero" fill-opacity="1" transform="matrix(1 0 0 -1.00257 682.332 255.915)"/><path d="M4.17162-0.658464C3.8434-1.50265 3.52262-2.05305 3.20925-2.30969 2.89724-2.56766 2.47988-2.69666 1.95716-2.69666L1.02518-2.69666 1.02518-1.72214 1.70998-1.72214C2.03009-1.72214 2.27863-1.64582 2.45556-1.49319 2.63385-1.34191 2.83038-0.983305 3.04514-0.417365L3.25382 0.113458 0.386974 7.09115 1.62083 7.09115 3.83732 1.54587 6.05381 7.09115 7.28767 7.09115 4.17162-0.658464Z" fill="#000000" fill-rule="nonzero" fill-opacity="1" transform="matrix(1 0 0 -1.00257 690.278 255.915)"/><path d="M5.88768 3.62864C5.88768 4.47283 5.71344 5.12655 5.36496 5.58985 5.01784 6.05448 4.52956 6.28681 3.90013 6.28681 3.27611 6.28681 2.78986 6.05448 2.44138 5.58985 2.0929 5.12655 1.91866 4.47283 1.91866 3.62864 1.91866 2.7885 2.0929 2.13612 2.44138 1.67148 2.78986 1.20685 3.27611 0.974526 3.90013 0.974526 4.52956 0.974526 5.01784 1.20685 5.36496 1.67148 5.71344 2.13612 5.88768 2.7885 5.88768 3.62864ZM7.05265 0.879302C7.05265-0.326867 6.78454-1.2244 6.24831-1.81331 5.71344-2.40222 4.89289-2.69666 3.78667-2.69666 3.37741-2.69666 2.99111-2.66627 2.62778-2.60549 2.26445-2.54471 1.91191-2.45084 1.57018-2.32387L1.57018-1.19131C1.91191-1.37636 2.24957-1.51278 2.5832-1.60057 2.91683-1.68972 3.25652-1.73429 3.6023-1.73429 4.36679-1.73429 4.93882-1.53506 5.31836-1.13661 5.6979-0.738154 5.88768-0.135745 5.88768 0.67062L5.88768 1.24804C5.64725 0.829326 5.33929 0.516641 4.9638 0.309984 4.58832 0.103328 4.13853 0 3.61446 0 2.74595 0 2.04563 0.330919 1.51345 0.99276 0.981279 1.65595 0.715193 2.53458 0.715193 3.62864 0.715193 4.7254 0.981279 5.6047 1.51345 6.26655 2.04563 6.92973 2.74595 7.26133 3.61446 7.26133 4.13853 7.26133 4.58832 7.15801 4.9638 6.95135 5.33929 6.74469 5.64725 6.43268 5.88768 6.01532L5.88768 7.09115 7.05265 7.09115 7.05265 0.879302Z" fill="#000000" fill-rule="nonzero" fill-opacity="1" transform="matrix(1 0 0 -1.00257 697.952 255.915)"/><path d="M5.33052 6.00316C5.19949 6.07879 5.057 6.13419 4.90302 6.1693 4.74904 6.20577 4.57952 6.224 4.39448 6.224 3.73535 6.224 3.22951 6.00991 2.87698 5.58175 2.52445 5.15358 2.34818 4.53833 2.34818 3.73602L2.34818 0 1.17713 0 1.17713 7.09115 2.34818 7.09115 2.34818 5.98898C2.594 6.41986 2.91278 6.73928 3.30447 6.9473 3.69753 7.15665 4.175 7.26133 4.73689 7.26133 4.81657 7.26133 4.90505 7.25592 5.0023 7.24513 5.09955 7.23566 5.20693 7.22014 5.32444 7.19853L5.33052 6.00316Z" fill="#000000" fill-rule="nonzero" fill-opacity="1" transform="matrix(1 0 0 -1.00257 706.182 255.915)"/><path d="M3.96902 6.27465C3.345 6.27465 2.85131 6.03086 2.48798 5.54325 2.12465 5.05564 1.94297 4.38774 1.94297 3.53949 1.94297 2.69125 2.12329 2.02334 2.48393 1.53574 2.84592 1.04814 3.34094 0.804339 3.96902 0.804339 4.59034 0.804339 5.08198 1.04881 5.44397 1.53777 5.8073 2.02807 5.98898 2.6953 5.98898 3.53949 5.98898 4.37963 5.8073 5.04551 5.44397 5.53717 5.08198 6.02883 4.59034 6.27465 3.96902 6.27465ZM3.96902 7.26133C4.98204 7.26133 5.7776 6.93176 6.35569 6.27263 6.93514 5.61483 7.22486 4.7038 7.22486 3.53949 7.22486 2.37924 6.93514 1.46821 6.35569 0.806365 5.7776 0.145875 4.98204-0.18437 3.96902-0.18437 2.95194-0.18437 2.15504 0.145875 1.57829 0.806365 1.00289 1.46821 0.715193 2.37924 0.715193 3.53949 0.715193 4.7038 1.00289 5.61483 1.57829 6.27263 2.15504 6.93176 2.95194 7.26133 3.96902 7.26133Z" fill="#000000" fill-rule="nonzero" fill-opacity="1" transform="matrix(1 0 0 -1.00257 711.222 255.915)"/><path d="M1.10217 2.79796 1.10217 7.09115 2.26714 7.09115 2.26714 2.84254C2.26714 2.17125 2.39748 1.66743 2.65817 1.33111 2.92019 0.996138 3.31325 0.828651 3.83732 0.828651 4.4654 0.828651 4.96178 1.02923 5.32646 1.43039 5.69251 1.83154 5.87552 2.37857 5.87552 3.07148L5.87552 7.09115 7.04049 7.09115 7.04049 0 5.87552 0 5.87552 1.09001C5.59323 0.659138 5.26501 0.339024 4.89086 0.129667 4.51807-0.0796909 4.0845-0.18437 3.59015-0.18437 2.77568-0.18437 2.15707 0.0688854 1.73429 0.575396 1.31288 1.08191 1.10217 1.82276 1.10217 2.79796Z" fill="#000000" fill-rule="nonzero" fill-opacity="1" transform="matrix(1 0 0 -1.00257 719.155 255.915)"/><path d="M7.11748 4.28103 7.11748 0 5.95251 0 5.95251 4.24253C5.95251 4.91382 5.82149 5.41561 5.55946 5.74788 5.29743 6.08151 4.90505 6.24831 4.38233 6.24831 3.7529 6.24831 3.25652 6.04773 2.89319 5.64658 2.52986 5.24678 2.34818 4.70042 2.34818 4.00751L2.34818 0 1.17713 0 1.17713 7.09115 2.34818 7.09115 2.34818 5.98898C2.62778 6.41581 2.95599 6.73456 3.33284 6.94527 3.71104 7.15598 4.14731 7.26133 4.64166 7.26133 5.45613 7.26133 6.07205 7.00944 6.48941 6.50562 6.90813 6.0018 7.11748 5.26027 7.11748 4.28103Z" fill="#000000" fill-rule="nonzero" fill-opacity="1" transform="matrix(1 0 0 -1.00257 727.373 255.915)"/><path d="M5.88768 6.01532 5.88768 9.85264 7.05265 9.85264 7.05265 0 5.88768 0 5.88768 1.06367C5.6432 0.642255 5.3339 0.328893 4.95975 0.123589 4.58696-0.081717 4.13853-0.18437 3.61446-0.18437 2.75811-0.18437 2.06048 0.157356 1.52156 0.840807 0.983982 1.52561 0.715193 2.42517 0.715193 3.53949 0.715193 4.65382 0.983982 5.55271 1.52156 6.23616 2.06048 6.9196 2.75811 7.26133 3.61446 7.26133 4.13853 7.26133 4.58696 7.15867 4.95975 6.95338 5.3339 6.74941 5.6432 6.43673 5.88768 6.01532ZM1.91866 3.53949C1.91866 2.68315 2.09493 2.01118 2.44746 1.52358 2.79999 1.03598 3.28421 0.792182 3.90013 0.792182 4.51605 0.792182 5.00094 1.03598 5.35483 1.52358 5.71005 2.01118 5.88768 2.68315 5.88768 3.53949 5.88768 4.39584 5.71005 5.0678 5.35483 5.55541 5.00094 6.04301 4.51605 6.28681 3.90013 6.28681 3.28421 6.28681 2.79999 6.04301 2.44746 5.55541 2.09493 5.0678 1.91866 4.39584 1.91866 3.53949Z" fill="#000000" fill-rule="nonzero" fill-opacity="1" transform="matrix(1 0 0 -1.00257 735.591 255.915)"/><path d="M0.386974 7.09115 1.62083 7.09115 3.83732 1.14066 6.05381 7.09115 7.28767 7.09115 4.62748 0 3.04514 0 0.386974 7.09115Z" fill="#000000" fill-rule="nonzero" fill-opacity="1" transform="matrix(1 0 0 -1.00257 747.944 255.915)"/><path d="M2.48798 1.07583 6.95135 1.07583 6.95135 0 0.950214 0 0.950214 1.07583C1.43511 1.57829 2.09628 2.25229 2.93371 3.09782 3.77249 3.9447 4.29926 4.49107 4.51402 4.73689 4.92328 5.19613 5.20895 5.58513 5.37104 5.90389 5.53448 6.22264 5.61619 6.53601 5.61619 6.84397 5.61619 7.34643 5.43992 7.75569 5.08739 8.07175 4.73486 8.38917 4.27562 8.54787 3.70968 8.54787 3.30853 8.54787 2.88508 8.47832 2.43935 8.33919 1.99498 8.20006 1.51953 7.98868 1.01302 7.70504L1.01302 8.99765C1.52764 9.20431 2.00848 9.36031 2.45556 9.46567 2.90399 9.57102 3.31394 9.6237 3.68537 9.6237 4.66462 9.6237 5.44533 9.37855 6.02747 8.88824 6.60962 8.3993 6.9007 7.74556 6.9007 6.92704 6.9007 6.53804 6.82776 6.1693 6.68189 5.82082 6.53737 5.4737 6.27263 5.06375 5.88768 4.59101 5.78232 4.46809 5.44667 4.11422 4.88073 3.52936 4.31614 2.94451 3.51857 2.12668 2.48798 1.07583Z" fill="#000000" fill-rule="nonzero" fill-opacity="1" transform="matrix(1 0 0 -1.00257 755.617 255.915)"/><path d="M1.38581 1.60868 2.723 1.60868 2.723 0 1.38581 0 1.38581 1.60868Z" fill="#000000" fill-rule="nonzero" fill-opacity="1" transform="matrix(1 0 0 -1.00257 763.867 255.915)"/><path d="M1.39999 9.45351 6.42053 9.45351 6.42053 8.37566 2.57105 8.37566 2.57105 6.05989C2.75609 6.12337 2.94114 6.17065 3.12618 6.20171 3.31258 6.23277 3.49897 6.24831 3.68537 6.24831 4.74027 6.24831 5.57567 5.95926 6.19158 5.38117 6.80886 4.80308 7.11748 4.02034 7.11748 3.03298 7.11748 2.01591 6.80075 1.22508 6.16727 0.66049 5.53379 0.09725 4.64099-0.18437 3.48884-0.18437 3.09174-0.18437 2.6872-0.150602 2.27524-0.0830677 1.86463-0.015533 1.43984 0.085769 1.00086 0.220839L1.00086 1.50738C1.38041 1.30072 1.77279 1.14674 2.17799 1.04544 2.5832 0.944135 3.01137 0.893484 3.46251 0.893484 4.19324 0.893484 4.77133 1.08528 5.1968 1.46888 5.62362 1.85248 5.83703 2.37385 5.83703 3.03298 5.83703 3.69078 5.62362 4.21147 5.1968 4.59506 4.77133 4.98001 4.19324 5.17248 3.46251 5.17248 3.12077 5.17248 2.77973 5.13466 2.43935 5.05903 2.10034 4.98339 1.75388 4.86519 1.39999 4.70447L1.39999 9.45351Z" fill="#000000" fill-rule="nonzero" fill-opacity="1" transform="matrix(1 0 0 -1.00257 767.989 255.915)"/><path d="M2.55079 8.40199 2.55079 4.85034 4.15946 4.85034C4.75512 4.85034 5.21503 5.00432 5.5392 5.31228 5.86472 5.62024 6.02747 6.05922 6.02747 6.62921 6.02747 7.19514 5.86472 7.6321 5.5392 7.94006 5.21503 8.24802 4.75512 8.40199 4.15946 8.40199L2.55079 8.40199ZM1.27235 9.45351 4.15946 9.45351C5.21975 9.45351 6.02073 9.21377 6.56235 8.73427 7.10533 8.25476 7.37682 7.55308 7.37682 6.62921 7.37682 5.69587 7.10533 4.99081 6.56235 4.51402 6.02073 4.03723 5.21975 3.79883 4.15946 3.79883L2.55079 3.79883 2.55079 0 1.27235 0 1.27235 9.45351Z" fill="#000000" fill-rule="nonzero" fill-opacity="1" transform="matrix(1 0 0 -1.00257 653.284 216.271)"/><path d="M1.2217 7.09115 2.38668 7.09115 2.38668 0 1.2217 0 1.2217 7.09115ZM1.2217 9.85264 2.38668 9.85264 2.38668 8.37566 1.2217 8.37566 1.2217 9.85264Z" fill="#000000" fill-rule="nonzero" fill-opacity="1" transform="matrix(1 0 0 -1.00257 661.104 216.271)"/><path d="M7.11748 7.09115 4.55252 3.6408 7.24918 0 5.87552 0 3.81098 2.78581 1.74847 0 0.372792 0 3.12821 3.70968 0.607813 7.09115 1.98147 7.09115 3.86164 4.56467 5.7418 7.09115 7.11748 7.09115Z" fill="#000000" fill-rule="nonzero" fill-opacity="1" transform="matrix(1 0 0 -1.00257 664.706 216.271)"/><path d="M4.43298 8.19331 2.69666 3.48884 6.17335 3.48884 4.43298 8.19331ZM3.70968 9.45351 5.16033 9.45351 8.76263 0 7.43355 0 6.57248 2.42517 2.31171 2.42517 1.45065 0 0.101302 0 3.70968 9.45351Z" fill="#000000" fill-rule="nonzero" fill-opacity="1" transform="matrix(1 0 0 -1.00257 672.38 216.271)"/><path d="M5.33052 6.00316C5.19949 6.07879 5.057 6.13419 4.90302 6.1693 4.74904 6.20577 4.57952 6.224 4.39448 6.224 3.73535 6.224 3.22951 6.00991 2.87698 5.58175 2.52445 5.15358 2.34818 4.53833 2.34818 3.73602L2.34818 0 1.17713 0 1.17713 7.09115 2.34818 7.09115 2.34818 5.98898C2.594 6.41986 2.91278 6.73928 3.30447 6.9473 3.69753 7.15665 4.175 7.26133 4.73689 7.26133 4.81657 7.26133 4.90505 7.25592 5.0023 7.24513 5.09955 7.23566 5.20693 7.22014 5.32444 7.19853L5.33052 6.00316Z" fill="#000000" fill-rule="nonzero" fill-opacity="1" transform="matrix(1 0 0 -1.00257 681.25 216.271)"/><path d="M2.37452 9.10503 2.37452 7.09115 4.77335 7.09115 4.77335 6.18551 2.37452 6.18551 2.37452 2.33603C2.37452 1.75793 2.45354 1.38649 2.61157 1.2217 2.7696 1.05692 3.09174 0.974526 3.57799 0.974526L4.77335 0.974526 4.77335 0 3.57799 0C2.67843 0 2.05779 0.167486 1.71606 0.502458 1.37433 0.838781 1.20347 1.44997 1.20347 2.33603L1.20347 6.18551 0.348479 6.18551 0.348479 7.09115 1.20347 7.09115 1.20347 9.10503 2.37452 9.10503Z" fill="#000000" fill-rule="nonzero" fill-opacity="1" transform="matrix(1 0 0 -1.00257 686.581 216.271)"/><path d="M0.634151 4.07032 4.04601 4.07032 4.04601 3.03298 0.634151 3.03298 0.634151 4.07032Z" fill="#000000" fill-rule="nonzero" fill-opacity="1" transform="matrix(1 0 0 -1.00257 691.665 216.271)"/><path d="M5.3062 3.2984 5.31228 4.7612C5.31633 5.75801 4.94287 6.25844 4.19188 6.2625 3.63 6.26655 3.17414 6.03422 2.8243 5.56554 2.38532 4.98745 2.09154 4.31209 1.94297 3.53949 1.76198 2.61021 1.78562 1.92406 2.01389 1.48104 2.25026 1.0299 2.62372 0.804339 3.13429 0.804339 3.70022 0.804339 4.2216 1.25412 4.69839 2.15368L5.3062 3.2984ZM4.38841 7.24918C5.70533 7.27079 6.35502 6.59949 6.33746 5.23529 6.33746 5.23529 6.66703 5.8539 7.32617 7.09115L8.3635 7.09115 6.31922 3.24774 6.29896 1.86193C6.29896 1.65528 6.35636 1.4655 6.47118 1.29261 6.6022 1.09001 6.73523 0.988708 6.87031 0.988708L7.43355 0.988708 7.2431 0 6.54006 0C6.14296 0 5.80123 0.177616 5.51489 0.532849 5.37981 0.709789 5.31026 0.983982 5.3062 1.35542 5.03202 0.90294 4.65854 0.484899 4.1858 0.101302 3.96158-0.0756388 3.5476-0.162083 2.94384-0.158031 1.95648-0.149927 1.28316 0.170863 0.923875 0.804339 0.556487 1.46213 0.486925 2.37385 0.715193 3.53949 0.959669 4.79295 1.4027 5.70466 2.04428 6.27465 2.7669 6.91219 3.54827 7.23702 4.38841 7.24918Z" fill="#000000" fill-rule="nonzero" fill-opacity="1" transform="matrix(1 0 0 -1.00257 696.344 216.271)"/><path d="M5.50881 7.85699C4.76592 7.85699 4.18985 7.58281 3.78059 7.03442 3.37133 6.48603 3.1667 5.71344 3.1667 4.71663 3.1667 3.72522 3.37133 2.95464 3.78059 2.40491 4.18985 1.85653 4.76592 1.58234 5.50881 1.58234 6.25575 1.58234 6.83384 1.85653 7.2431 2.40491 7.65236 2.95464 7.85699 3.72522 7.85699 4.71663 7.85699 5.71344 7.65236 6.48603 7.2431 7.03442 6.83384 7.58281 6.25575 7.85699 5.50881 7.85699ZM5.50881 9.6237C7.02834 9.6237 8.21829 9.18877 9.07869 8.31893 9.94043 7.45042 10.3713 6.24967 10.3713 4.71663 10.3713 3.18899 9.94043 1.99025 9.07869 1.1204 8.21829 0.250555 7.02834-0.18437 5.50881-0.18437 3.99333-0.18437 2.80404 0.250555 1.94095 1.1204 1.07785 1.99025 0.646307 3.18899 0.646307 4.71663 0.646307 6.24967 1.07785 7.45042 1.94095 8.31893 2.80404 9.18877 3.99333 9.6237 5.50881 9.6237Z" fill="#000000" fill-rule="nonzero" fill-opacity="1" transform="matrix(1 0 0 -1.00257 553.872 173.282)"/><path d="M1.01302 2.76149 1.01302 7.09115 3.29232 7.09115 3.29232 6.38203C3.29232 5.99844 3.29029 5.51624 3.28624 4.93544 3.28219 4.35463 3.28016 3.96766 3.28016 3.77452 3.28016 3.20453 3.29501 2.79391 3.32473 2.54268 3.35446 2.29145 3.40511 2.10844 3.47669 1.99363 3.56853 1.8464 3.68942 1.73227 3.83935 1.65122 3.98928 1.57153 4.16149 1.53169 4.35599 1.53169 4.82873 1.53169 5.20018 1.71336 5.47031 2.07669 5.74045 2.44002 5.87552 2.94451 5.87552 3.59015L5.87552 7.09115 8.14266 7.09115 8.14266 0 5.87552 0 5.87552 1.02518C5.53379 0.611865 5.17182 0.306607 4.78956 0.109406 4.40731-0.0864445 3.98658-0.18437 3.52734-0.18437 2.70746-0.18437 2.08344 0.0668594 1.65528 0.569318 1.22711 1.07178 1.01302 1.8025 1.01302 2.76149Z" fill="#000000" fill-rule="nonzero" fill-opacity="1" transform="matrix(1 0 0 -1.00257 564.895 173.282)"/><path d="M6.35772 5.16033C6.15917 5.25353 5.96128 5.32174 5.76409 5.36496 5.56823 5.40953 5.37104 5.43182 5.17248 5.43182 4.59034 5.43182 4.1419 5.24475 3.82719 4.8706 3.51249 4.49781 3.35513 3.96361 3.35513 3.26801L3.35513 0 1.09001 0 1.09001 7.09115 3.35513 7.09115 3.35513 5.92617C3.64688 6.3908 3.98117 6.72915 4.35802 6.94122 4.73622 7.15462 5.18936 7.26133 5.71749 7.26133 5.79312 7.26133 5.87485 7.25795 5.96264 7.2512 6.05179 7.24579 6.18078 7.2323 6.34961 7.21068L6.35772 5.16033Z" fill="#000000" fill-rule="nonzero" fill-opacity="1" transform="matrix(1 0 0 -1.00257 574.126 173.282)"/><path d="M6.62921 6.87031 6.62921 5.14817C6.14432 5.35078 5.67561 5.50273 5.22314 5.60403 4.772 5.70533 4.34586 5.75598 3.9447 5.75598 3.51382 5.75598 3.19371 5.70195 2.98436 5.5939 2.77635 5.48585 2.67235 5.32039 2.67235 5.09752 2.67235 4.91518 2.75136 4.77538 2.9094 4.67813 3.06743 4.58224 3.35107 4.51064 3.76033 4.46337L4.15946 4.40664C5.32105 4.25941 6.10177 4.01697 6.50157 3.67929 6.90272 3.34161 7.1033 2.81148 7.1033 2.08885 7.1033 1.33381 6.82438 0.765844 6.26655 0.384948 5.71005 0.00540278 4.87938-0.18437 3.77452-0.18437 3.30583-0.18437 2.82092-0.147226 2.31982-0.0729375 1.82006 0.0013507 1.30612 0.112108 0.778 0.259333L0.778 1.98147C1.23048 1.76266 1.69377 1.59787 2.16786 1.48711 2.64332 1.37771 3.12551 1.32301 3.61446 1.32301 4.05883 1.32301 4.39246 1.38379 4.61532 1.50535 4.83954 1.62826 4.95165 1.81061 4.95165 2.05238 4.95165 2.25498 4.87466 2.40558 4.72068 2.50419 4.5667 2.6028 4.25941 2.67978 3.79883 2.73516L3.3997 2.78581C2.39073 2.91278 1.68364 3.14711 1.27843 3.48884 0.873224 3.83058 0.67062 4.34991 0.67062 5.04687 0.67062 5.79786 0.927927 6.35434 1.44254 6.71633 1.95851 7.07966 2.74798 7.26133 3.81098 7.26133 4.22971 7.26133 4.66867 7.22959 5.12791 7.16611 5.58849 7.10397 6.08892 7.00538 6.62921 6.87031Z" fill="#000000" fill-rule="nonzero" fill-opacity="1" transform="matrix(1 0 0 -1.00257 580.521 173.282)"/><g><path d="M255.946 180.108C257.379 180.108 258.753 179.539 259.766 178.525 260.779 177.513 261.349 176.138 261.349 174.705 261.349 173.272 260.779 171.898 259.766 170.884 258.753 169.872 257.379 169.303 255.946 169.303 254.513 169.303 253.139 169.872 252.125 170.884 251.111 171.898 250.543 173.272 250.543 174.705 250.543 176.138 251.111 177.513 252.125 178.525 253.139 179.539 254.513 180.108 255.946 180.108Z" fill="#FF69B4" fill-rule="nonzero" fill-opacity="0.7" transform="matrix(1 0 0 1.00257 462 103)"/></g><g><path d="M279.101 109.984C280.534 109.984 281.907 109.415 282.921 108.401 283.934 107.388 284.504 106.014 284.504 104.581 284.504 103.148 283.934 101.774 282.921 100.761 281.907 99.7477 280.534 99.1784 279.101 99.1784 277.667 99.1784 276.294 99.7477 275.28 100.761 274.267 101.774 273.698 103.148 273.698 104.581 273.698 106.014 274.267 107.388 275.28 108.401 276.294 109.415 277.667 109.984 279.101 109.984Z" fill="#3CB371" fill-rule="nonzero" fill-opacity="0.7" transform="matrix(1 0 0 1.00257 462 103)"/></g><g><path d="M261.575 137.983C263.008 137.983 264.383 137.414 265.395 136.401 266.409 135.387 266.978 134.013 266.978 132.58 266.978 131.147 266.409 129.774 265.395 128.76 264.383 127.747 263.008 127.177 261.575 127.177 260.143 127.177 258.768 127.747 257.755 128.76 256.742 129.774 256.173 131.147 256.173 132.58 256.173 134.013 256.742 135.387 257.755 136.401 258.768 137.414 260.143 137.983 261.575 137.983Z" fill="#9932CC" fill-rule="nonzero" fill-opacity="0.7" transform="matrix(1 0 0 1.00257 462 103)"/></g><g><path d="M217.088 131.173C218.521 131.173 219.895 130.604 220.908 129.59 221.921 128.577 222.491 127.203 222.491 125.77 222.491 124.337 221.921 122.963 220.908 121.949 219.895 120.936 218.521 120.367 217.088 120.367 215.655 120.367 214.281 120.936 213.267 121.949 212.254 122.963 211.685 124.337 211.685 125.77 211.685 127.203 212.254 128.577 213.267 129.59 214.281 130.604 215.655 131.173 217.088 131.173Z" fill="#6495ED" fill-rule="nonzero" fill-opacity="0.7" transform="matrix(1 0 0 1.00257 462 103)"/></g><g><path d="M109.055 88.2909C110.488 88.2909 111.862 87.7217 112.875 86.7084 113.888 85.6953 114.458 84.3209 114.458 82.8881 114.458 81.4553 113.888 80.0809 112.875 79.0678 111.862 78.0546 110.488 77.4853 109.055 77.4853 107.622 77.4853 106.248 78.0546 105.234 79.0678 104.221 80.0809 103.652 81.4553 103.652 82.8881 103.652 84.3209 104.221 85.6953 105.234 86.7084 106.248 87.7217 107.622 88.2909 109.055 88.2909Z" fill="#FF8800" fill-rule="nonzero" fill-opacity="0.7" transform="matrix(1 0 0 1.00257 462 103)"/></g></g></g></g></g></g></svg>